<svg id="eTL7IWbxdZ31" xmlns="http://www.w3.org/2000/svg" xmlns:xlink="http://www.w3.org/1999/xlink" viewBox="0 0 400 500" shape-rendering="geometricPrecision" text-rendering="geometricPrecision"><g id="eTL7IWbxdZ314" transform="translate(2.839306 11.529959)"><g transform="translate(9.140828-.000015)"><g><g transform="translate(-24.000833-3.792482)"><path d="M373.16,308.43c-3.76-3.63-8.51-5.81-13.31-7.7-6.88-2.75-14.12-4.48-21.28-6.33-1.27-.32-2.55-.63-3.83-.94.49-1.63.61-3.37.3-5.04.21-.16.42-.31.63-.48c7.15-5.46,13.18-12.26,18.6-19.41c7.06-8.78,12.59-18.98,15.07-30.02c1.35-6.72,1.4-13.64.45-20.42-.67-5.44-1.51-10.9-3.24-16.13-1.6-4.67-3.55-9.23-5.85-13.6-1.83-3.49-4.09-6.73-5.84-10.27-.15-.29-.28-.59-.42-.89-.17-.43-.35-.87-.51-1.3-1.9-5.47-3.76-10.96-6.1-16.27-1.63-3.36-2.77-7.46-5.96-9.67-1.43-1.13-2.93-1.8-4.43-2.11-.88-2.56-1.88-5.08-3.01-7.55-9.01-21.57-26.69-38.54-47.07-49.52-24.36-12.04-41.69-11.62-65.35-8.32-1.63-1.18-3.67-1.91-6.1-1.94-6.42.17-12.45,2.6-18.26,5.12-12.35,5.2-22.76,13.66-31.88,23.36-5.01-.17-9.97,1.97-14.01,4.87-6.24,4.39-10.9,10.53-15.18,16.76-5.2,8.02-9.72,16.51-13.24,25.4-1.61,4.08-2.79,8.33-3.53,12.65-.65,3.47-.91,6.98-.13,10.45.52,1.88,1.36,3.64,2.44,5.24-.21,1.16-.39,2.32-.55,3.49-1.24,8.08-2.08,16.24-1.73,24.42.15,3.69.26,7.4.73,11.06.21,2.21.58,4.48,1.58,6.43-.34,1.51-.67,3.02-1.02,4.52-2.31,9.12-3.95,18.58-2.65,27.98.57,4.86,1.32,9.57,3.49,14.04c3.61,8.84,10.26,16.2,17.75,21.99c6.99,5.82,15.11,9.96,23.45,13.47-1.15.37-2.23.95-3.19,1.68-4.85.17-9.52,2.39-13.84,4.57-8.1,4.04-15.86,10.65-18.24,19.68-3.91,5.18-5.25,11.67-1.23,18.36.33.57.69,1.12,1.04,1.67c1.45,4.8,4.29,8.97,7.57,12.71c6.73,7.36,15.48,12.49,24.51,16.57c3.12,1.69,6.36,3.14,9.75,4.24c5.46,1.57,11.69-1.74,13.11-7.31.16-.85.26-1.73.28-2.62.91-1.55,1.47-3.27,1.42-5.15.13-1.68.32-3.35.43-5.02.27-3.68.23-7.36,0-11.03c4.43-4.07,5.85-10.54,4.01-16.36-1.48-4.09-4.22-7.41-7.58-10.08-.26-1.43-.53-2.86-.82-4.29-1.04-4.44-2.35-9.07-5-12.82c10.3,3.5,21.07,5.58,32,5.17.62-.02,1.25-.03,1.87-.05c1.11,2.69,3.36,4.96,6.81,5.95.18.04.36.09.53.13c1.06.62,2.07,1.34,3.07,2.06c5.68,4.6,10.87,9.81,15.56,15.41c5.94,7.05,11.08,15.25,19.2,20.02c6.09,3.34,13.73,2.59,18.84-2.2c6.47-5.92,8.65-14.81,12.76-22.29c2.46-4.69,4.71-9.48,6.87-14.32c2.03-4.22,3.7-8.81,2.55-13.53-.3-1.02-.68-1.95-1.13-2.81c2.25-.36,4.5-.77,6.73-1.25c2.91-.63,5.82-1.33,8.7-2.08c1.18,1.55,2.82,2.8,4.9,3.49-.02.27-.04.55-.04.82.07,3.9,1.36,7.62,2.73,11.23c2.17,5.98,4.63,11.86,7.24,17.66c3.95,8.18,7.49,17.02,14.08,23.47c4.67,4.34,11.78,6.04,17.55,2.91c2.9-1.58,5.05-4.2,7.22-6.64c5.89-6.96,11.46-14.37,14.61-23.01c4.26-9.73,2.82-20.67-4.88-28.28Z" fill="#fff"/><path d="M352.43,413.06c-.8-2.3-1.97-4.73-4.07-6.1-1.83-1.58-4.22-2.13-6.58-2.34-3-.06-5.67,1.35-7.84,3.27-1.42,1.56-2.56,3.34-3.79,5.05-1.21,1.46-2.6,2.75-4.06,3.95-.06.04-.11.08-.17.13-2.02,1.44-4.21,2.62-6.46,3.66-.07.03-.14.05-.22.09-2.25.79-4.56,1.35-6.9,1.78-4.45-.09-8.91-.1-13.37-.2-5.34.14-11.08-1.48-16.01,1.14-1.22.67-2.22,1.58-3.01,2.64-2.99-.57-6.08-.55-9.11-.44-3.61.1-7.23.24-10.83.61-5.86.56-11.71,1.41-17.5,2.59-3.32-2.35-7.2-4.05-11.06-5.09-10.42-2.46-27.43-3.39-29.3-4.08-4.93-.79-9.84-1.67-14.76-2.53-2.25-.4-4.53-.74-6.8-.55-.21-1.22-.62-2.4-1.25-3.47-4.56-7.92-16.78-6.36-19.19,2.51-.93,4.57-.64,9.24.12,13.81.97,7.51,3.75,14.7,7.33,21.33c1.34,2.13,2.72,4.26,4.18,6.34-.92,3.14-.6,6.76,1.33,10c4.3,6.95,11.83,11.04,19.3,13.78c3.66,1.37,7.5,2.2,11.35,2.82c3.57.52,7.18,1,10.78.51c12.96-.73,23.36-10.06,30.3-20.39c1.79-2.77,3.09-5.81,4.34-8.85.93-2.13,1.68-4.33,2.12-6.6c4.1-.7,8.15-1.09,13.62-1.52c2.72-.09,5.45-.27,8.17-.29-.99,2.65-1.26,5.62-1.15,8.45.39,5.16,1.05,10.5,3.71,15.04c5.35,8.59,15.78,10.61,25.22,10.32c11.58-.24,23.65-.91,33.99-6.63c5.01-3.23,8.92-7.98,11.67-13.23c5.46-10.75,5.86-23.09,6.3-34.91.04-4.23.43-8.45-.4-12.6Z" fill="#fff"/><path d="M82.73,94.96c.05-.35.1-.71.13-1.07.05-.32.09-.64.13-.97.98-9.18-4.43-15.4-11.73-16.26-2.64-.8-5.5-.98-8.31-.38-11.71,2.64-20.55,17.99-13.57,28.55.14.99.38,1.95,1.05,2.7.75,1.13,2.11,1.74,3.47,1.76-1.22,1.99-1.01,4.91,1.46,6.31c2.09.91,4.26,1.72,6.54,2c1.24.14,2.6.52,3.75-.14c1.62-.55,2.56-2.08,2.71-3.7c1.12.03,2.27-.05,3.43-.27c4.21-.97,7.54-4.14,9.59-7.85c1.14-1.88,2.17-3.9,2.3-6.13-.06-1.55-.39-3.09-.95-4.55Z" fill="#fff"/><path d="M370.02,27.57c-.78-1.15-2.05-1.95-3.63-1.92-2.95.12-5.5,1.76-7.93,3.29-5.75,3.79-10.92,10.46-9.53,17.7.88,5.77,6.4,9.97,12.13,9.98c5.82.01,11.03-3.56,14.11-8.35c6.14-8.89,1.91-18.51-5.15-20.7Z" fill="#fff"/></g></g><g><g transform="translate(-24.000834-3.792482)"><path d="M384.63,326.26c-.04-.08-.06-.16-.09-.24c0,0,0,0-.01,0c0-.01,0-.02-.01-.04-.47-1.13-.66-2.39-.87-3.59-.06-.39-.12-.77-.18-1.16-.29-.14-.52-.42-.52-.84c0-.81.11-1.73-.47-2.36-.49-.52-.26-1.18.19-1.51-.28-1.01-.44-2.05-.66-3.06-.27-1.21-.89-2.34-1.09-3.54-.1-.61-.03-1.18.13-1.73-.28-.35-.55-.71-.83-1.06-1.42-1.8-2.94-3.52-4.35-5.32-2.9,1.28-4.87,4.68-2.88,8.44.04.1.08.2.12.3.65,1.77,1.12,3.6,1.46,5.45.54,6.21.45,7.05-.74,11.5-1.05,3.19-2.68,6.6-6.54,12.08-.1.14-.19.26-.27.36-1.7,2.17-3.61,4.16-5.75,5.89-3.32,2.43-6.84,4.59-10.43,6.59-.17.11-.35.2-.53.3-.22-2.66-.55-5.32-.96-7.96-1.81-11.8-6.3-23.08-11.98-33.53-2.33-4.03-5.21-7.71-8.72-10.72c2.52-1.29,5-2.67,7.41-4.16-.1-.02-.19-.04-.28-.09-.68.11-1.42.28-2.13.26-.08.04-.17.07-.25.11-.24.11-.38.25-.61.41-.04.02-.26.12-.36.17.02,0-.21.13-.25.16-.13.07-.28.12-.42.16-.09.01-.18.02-.27.04.11-.01.22-.02.33-.04-.3.21-.71.16-1.01,0-.5-.26-.7-.95-.53-1.49-.75-.33-.63-1.52.19-1.87.36-.15.7-.2,1.07-.24c0-.01,0-.01.01-.02.54-.89,1.52-1.32,2.41-1.8.93-.5,1.87-.78,2.86-1.09c1.14-.36,2.26-.66,3.44-.9.44-.09.82-.12,1.18-.05.6-.32,1.24-.63,1.77-1.04.62-.47,1.18-.99,1.82-1.43.83-.58,1.62.36,1.42,1.14.21-.17.42-.34.62-.52-1.17-1.16-1.44-2.76-.75-4.37.41-.95,1.86-.42,1.86.5v.77c0,.25-.09.44-.21.59.04.34.16.68.33.95.39-.98.88-1.94,1.49-2.8.12-.16.24-.34.38-.5-.1-.15-.16-.33-.15-.54.13-1.88,1.47-3.84,2.59-5.31c1.33-1.73,2.33-3.77,3.83-5.37.56-.59,1.58-.2,1.69.56.14-.03.28-.06.43-.07.26-.33.52-.65.78-.97-.14-.39-.06-.87.37-1.21.94-.72,1.69-1.55,2.33-2.45.15-.41.3-.82.48-1.23.45-1.08.79-2.19,1.59-3.07.13-.14.29-.22.46-.26.05-.1.1-.2.15-.3.14-.28.38-.42.63-.46.1-.4.21-.8.31-1.2.78-3.25,1.57-6.48,2.79-9.6.33-.85,1.55-.99,1.89-.08.06-.26.13-.52.19-.78c1.28-7.48,1.44-15.1,1.05-22.67-.44-9.62-2.01-19.3-5.65-28.26-4.84-12.26-14.5-21.74-19.14-29.41-.06-.12-.11-.25-.17-.37-.99-2.78-1.77-5.63-2.67-8.44-5.21-16.31-12.32-32.26-23.14-45.66-6.28-8.1-13.96-14.98-21.41-21.97-1.88-1.77-3.8-3.49-5.74-5.18-.05.01-.08.03-.13.03-1.3,0-2.52-.19-3.75-.64-1.32-.48-2.75-.7-4.1-1.08-1.24-.35-2.47-.74-3.7-1.15-2.53,2.51-2.73,7.32,1.08,9.55c4.99,4.11,20.36,18,27.96,27.26c8.44,10.08,17.31,27.69,21.81,43.5c1.09,3.4,1.94,6.9,3.55,10.1c1.77,3.2,4.24,5.95,6.42,8.87-.31-.4-.63-.81-.94-1.21c4.73,6.3,9.64,12.62,12.84,19.86.95,2.4,1.73,4.87,2.39,7.37.76,2.91,1.39,5.86,1.83,8.84.85,7.47,1.05,15.02.59,22.52-.51,15.1-11.77,30.11-23.71,39.13-4.3,3.32-9.03,6.02-13.87,8.47-1.9.97-3.81,1.92-5.71,2.91-1.44-.24-2.96.02-4.28.74-1.67.66-3.37,1.22-5.08,1.76-22.41,6.53-43.48,10.55-62.86,12.83-6.29.91-30.48,3.93-42.99,2.34-14.77-1.13-31.5-7.3-47.2-17.07-7.22-4.66-7.91-4.91-13.8-10.47-5.24-5.37-6.77-6.88-10.39-14.67-1.61-4.09-2.83-8.33-3.48-12.67-.29-2.53-.44-5.08-.39-7.63.03-1.8.13-3.61.33-5.4.36-2.29.92-4.55,1.77-6.71.67-1.32.84-2.88.44-4.31-.68-2.74-3.16-4.26-5.68-4.33-.18.83-.41,1.63-.73,2.39.18.31.24.71.02,1-.64.85-1.31,1.67-2.01,2.47-1.62,2.26-3.62,4.3-5.38,6.41-2.35,12.93.65,27.48,6.57,38.63c11.81,21.05,42.13,36.28,64.92,42.06c10.43,2.47,21.06,2.98,31.69,2.53-.13-.24-.26-.49-.38-.74-.51-1.08-1.04-2.28-.54-3.46.24-.57,1.19-.65,1.57-.2.16.19.33.38.49.57.34-.13.75-.11,1.04.19.29.29.57.6.86.9.33-.47.97-.69,1.44-.13.52.63,1.04,1.25,1.56,1.88c1.6,1.94,3.18,3.9,4.68,5.92c14.11,1.43,28.34-1.87,42.14-4.61c2.63-.58,5.23-1.32,7.8-2.15c1.13-.4,2.39-.62,3.26-1.48c2-1.35,2.64-3.7,2.2-5.85c1.06-.23,2.11-.49,3.17-.73.3-.81.67-1.57,1.23-2.18.27-.29.73-.34,1.1-.2.02-.01.05-.02.07-.03.05-.07.11-.13.16-.2.08-.18.19-.31.33-.4.2-.24.42-.47.64-.7.6-.61,1.72-.16,1.71.71-.01.61-.11,1.22-.2,1.82c5.92-1.44,11.82-3,17.67-4.66c2.09-.65,4.19-1.33,6.21-2.18.48.71,1.14,1.37,2.02,1.96c7.34,4.31,12.21,14.78,16.06,25.33c1.58,4.89,2.61,8.58,3.3,12.02.4.01.78.22.9.7.13.53.27,1.07.39,1.61.4-.07.85.08,1.04.46c1.8,3.63,3.1,8.02,1.72,12c.27.42.56.85.68,1.27.13.46.13.97.26,1.45.16.59.36,1.17.55,1.75.05.14.09.29.14.43.11.29.23.59.34.89.28.65.56,1.3.83,1.95c1.87.17,3.83-.49,5.18-2.19c1.38.36,2.91.23,4.41-.65c6.73-3.33,13.31-7.3,18.78-12.49c6.16-6.57,11.17-14.51,13.49-23.26.19-.9.35-1.82.48-2.73-.22.85-1.41,1.32-1.84.38Z" fill="#d8eeff"/><path d="M169.24,373.84c-.01.1-.02.19-.04.29-.48,3.31-1.14,6.62-2.33,9.76-.49,1-1.16,1.95-1.16,3.1-.46,2.26.62,4.29,2.32,5.53.93-.65,1.86-1.3,2.81-1.92c2.5-2.11,5.05-4.16,8.16-5.24.03-.01.06-.01.09-.01c1.91-6.26,2.48-14.43,2.6-18.65.01-7.14-1.08-14.24-2.27-21.26-1.45-8.44-3.61-16.81-7.42-24.52-1.29-2.36-2.79-5.46-5.41-6.48-5.93-2.68-11.15,5.16-6.55,9.73c4.16,5.08,8.92,26.16,9.45,37.06.34,4.19.25,8.42-.25,12.61Z" fill="#d8eeff"/><path d="M238.22,447.56c-4.41,10.77-9.65,18.44-14.6,21.25-2.33,1.16-2.14,1.33-7.27,2.34-5,.83-8.05,1.32-16.05,1.26-7.29-.29-7.1-.35-12.6-1.34-1.82-.25-3.61-1.29-5.46-.87-3.23.21-5.22,3.24-5.15,6.19.53.64,1.03,1.3,1.47,2c.1.16.18.34.28.51.49.64.98,1.28,1.43,1.95.34.33.68.66,1.02.98.67.23,1.36.39,2.04.55c2.59.61,5.23.99,7.87,1.34c8.04,1.11,16.21.86,24.22-.35c4.68-.58,9.33-1.58,13.52-3.82c4.91-2.51,8.52-6.83,11.71-11.21c2.78-3.72,4.93-7.85,6.78-12.1.56-1.63,1.72-3.12,1.85-4.86c1.06-6.38-7.82-9.39-11.06-3.82Z" fill="#d8eeff"/><path d="M353.02,410.22c.02-2.94-.67-6.48-3.84-7.51-1.19-.59-2.5-.66-3.71-.33.14.12.24.29.3.48.1.26.11.54-.04.81-.01.01-.01.02-.01.04-.67,1.29-1.56,2.42-3.05,2.71-.57.11-1.12.27-1.66.45-.1.43-.15.88-.14,1.34.05.62.09,1.25.13,1.87-.28-.81-.74-1.56-1.38-2.19-.08-.07-.15-.13-.23-.2-.32.11-.67.22-1.03.33-.94.3-1.82,1.03-2.74,1.44-.35.16-.7.3-1.06.44-1.16.6-2.54,1.25-3.87,1.53-.08.03-.17.06-.25.1-2.89,1.35-5.63,3.13-8.87,3.38-1.3.47-2.6.92-3.91,1.35-1.32.44-2.62.96-3.95,1.4-.56.25-1.13.48-1.71.71-.86.63-1.97,1.06-3.09,1.34-.38.17-.75.33-1.13.46-.44.15-.89.15-1.36.23-1.44.24-3.08.77-4.67.89-.51.14-1.03.26-1.55.35-.31.05-.63.1-.94.13-1.34.41-2.72.72-4.12.9-3.53,1.65-7.58,2.57-11.37,2.95-1.02.1-2.07.06-3.1.04-1.07.31-2.16.59-3.25.82-1.36.28-2.73.43-4.1.56-.08.05-.17.09-.28.11-2.54.42-5.09.84-7.65,1.15-1.03.19-2.06.3-3.09.25-1.66.1-3.31.18-4.96.4-1.66.23-3.35.44-5.04.56-3.13,1-7.24-.01-10.2-.02-2.95-.01-6.9.54-9.97-.55-.2-.01-.4-.05-.6-.1-.73-.06-1.46-.12-2.19-.13-2.99-.07-6-.44-8.8-1.39-.16-.02-.31-.02-.47-.04-.25-.03-.51-.07-.76-.1-.15.03-.3.04-.46-.02-.07-.02-.14-.05-.21-.07-.84-.12-1.69-.26-2.52-.46-.63.44-1.34.76-2.13.85-.56.06-1.07-.03-1.62-.15-.75-.16-1.46-.13-2.22-.16-1.32-.04-2.65-.16-3.95-.46-1.33-.31-2.68-.34-4.03-.53s-2.69-.48-4-.85c-.55-.16-1.02-.37-1.59-.31-.11.01-.21.03-.32.05.21.61-.18,1.42-.91,1.36-.89-.08-1.57-.51-2.32-.96-1.11-.67-2.32-1.07-3.51-1.57-2.26-.95-4.54-1.84-6.8-2.79-.32-.13-.64-.26-.96-.4.01.04.02.08.02.12.07.81-.89,1.18-1.5.86-2.21-1.13-4.28-2.51-6.4-3.8-.51-.31-1.02-.6-1.52-.9-1.37-.65-2.75-1.31-4.07-2.07-.09-.04-.18-.08-.27-.13-.07-.04-.14-.09-.2-.15-1.09-.66-2.14-1.41-3.07-2.31-.14-.14-.22-.33-.25-.53-4.07,1.68-5.29,8.1-.71,10.75c1.76,1.5,3.87,2.42,5.99,3.3c3.49,1.51,7.11,2.69,10.78,3.67c15.55,4.84,31.81,6.08,47.97,7.1c16.18,1.26,32.38-.01,48.36-2.66c7.28-1.22,14.64-2.03,21.89-3.46c9.1-1.92,18.08-4.52,26.78-7.81c4.3-1.74,8.59-3.49,12.83-5.38c1.46-.81,2.4-2.2,2.77-3.72.21,7.05-.27,14.11-1.09,21.11-.3,3.15-3.14,18.05-6.39,26.34-.06.13-.11.25-.17.38-2.5,4.65-1.48,3-4.03,5.86-2.57,2.46-2.72,2.38-3.79,3.11-4.86,2.75-3.7,2.05-7.19,3.39-1.85.48-3.67,1.35-4.62,3.09-.8,1.3-.97,2.81-.66,4.21c1.67-.36,3.75-.07,5.08.02.58-.25,1.16-.51,1.76-.67.95-.24,2.1-.12,3.08-.25c1.06-.14,2.11-.33,3.17-.47.8-.11,1.6-.17,2.39-.22.7-.18,1.4-.37,2.09-.59.61-.2,1.04.19,1.18.67.3.03.59.05.89.1.12.02.22.07.31.13c9-6.19,12.5-14.72,15.01-25.02c3.82-14.49,5.64-29.59,4.84-44.56Z" fill="#d8eeff"/><path d="M281.7,449.46c-.83-8.86-13.68-6.88-11.81,1.78c1.26,8.6,1.95,9.11,1.79,17.82c2.22,3.11,4.65,6.08,5.92,9.76.04.12.05.23.05.34.03.06.05.12.07.18c1.33-.11,2.63-.64,3.61-1.69c1.62-1.51,1.78-3.78,2.05-5.84c1.09-7.47-.6-14.97-1.68-22.35Z" fill="#d8eeff"/><path d="M248.7,276.12c-.84-.21-1.69-.05-2.52.13-2.91.56-2.4.51-5.04.71-.45.08-2.13-.07-2.77-.13-.17-.03-.34-.05-.5-.08-.66-.19-1.38-.32-2.03-.13-.13-.08-.26-.15-.4-.2-1.54-.77-3.52.58-3.46,2.28.05,1.07.59,2.01,1.28,2.81c3.62,4.56,12.6,3.17,16.49-.41c1.57-1.54,1.2-4.34-1.05-4.98Z" fill="#d8eeff"/><path d="M90.19,93.5c-.96-1.42-3.31-1.23-4.12.25-1.52,2.53-1.36,2.23-3,4.14-5.34,5.64-10.36,9.75-16.54,9.05-6.88-1.28-11.48-7.06-12.55-14.63-.32-2.41-.41-4.85-.61-7.27c0-.66-.27-1.3-.73-1.77-1.46-1.57-4.34-.39-4.27,1.77.26,3.11.37,6.28.94,9.35-.29.39-.46.86-.45,1.44-.74,6.1,2.04,12.7,7.06,16.3c5.46,3.77,13.25,4.02,18.82.35c1.62-1.03,3.11-2.27,4.49-3.61.62-.46,1.05-1.08,1.23-1.74c1.45-1.11,2.81-2.31,4.07-3.53c1.95-1.92,3.79-3.98,5.26-6.3.78-1.09,1.43-2.65.4-3.8Z" fill="#d8eeff"/><path d="M377.34,36.6c-.23-1.3-.54-2.58-.92-3.84-.03-.3-.05-.59-.09-.89-.39-2.96-1.51-5.78-2.97-8.36-.77-1.31-1.71-3.2-3.53-2.83-1.23.09-2.16,1.26-2.17,2.46-.04.79.44,1.4.85,2.02.07.11.13.22.19.33-.69.95-.77,2.37.19,3.28c1,1.07,1.93,2.99,2.63,5.14.18,8.28-3.97,15.42-11.09,17.31-1.56.26-2.38.17-4.97-.42-.59-.17-1.18-.32-1.79-.4-1.35-.03-2.55,1.16-2.52,2.51.05,1.76,1.42,2.41,2.95,2.76c4.98,1.58,10.5,2.23,15.31-.2c4.45-2.23,7.45-6.93,8.2-11.78.45-2.36.16-4.76-.27-7.09Z" fill="#d8eeff"/></g></g><g><g transform="translate(-24.000834-3.792476)"><path d="M350.12,393.84c-.69-5.23-1.4-10.46-2.36-15.65-3.46-18.56-8.89-36.82-17.39-53.72-2.1-4.28-4.32-8.5-6.71-12.63-2.33-3.79-5.24-7.65-9.49-9.36-5.02-2.27-10.66-.21-15.54,1.51-4.25,1.64-8.74,3.11-12.18,6.22-4.01,3.83-4.42,9.69-6.32,14.63-2.16,6.05-3.75,9.43-8.95,18.39-1.5,2.35-2.47,4.01-3.22,5.31.39.21.66.65.5,1.13-.38,1.14-.78,2.24-1.38,3.19-.07.2-.14.4-.23.59-.48.99-1.27,1.68-2.15,2.31-1.76,1.26-4.46,3.22-6.75,2.42-.59-.21-1.06-.64-1.62-.9-.54-.24-1.11-.44-1.65-.73-.64-.35-1.19-.78-1.7-1.24-.8.35-1.54.81-2.2,1.37-4.67-4.4-9.62-10.46-14.8-16.54-5.23-6.24-9.92-13.11-16.42-18.14-3.91-3.45-9.16-4.46-14.24-4.48-5.01-.26-10.03-.45-15-1.05-2.96-.4-5.9-.92-8.81-1.58-.18-.04-.35-.1-.52-.15-1.78-.77-3.8-.94-5.67-.42-2.57.69-4.38,2.43-5.35,4.53.22.49.43.98.63,1.48.36-.34.91-.44,1.33.02.49.53.71,1.11.76,1.83.04.49-.04.48.11.84.12.31.22.63.29.95.18.73.46,1.53.57,2.29.62,1.19,1.19,2.41,1.69,3.66c1.48,3.75,2.31,7.71,3.9,11.41.34.78.57,1.56.69,2.41.11.82.32,1.25.67,1.97.31.65.49,1.3.59,2.01.12.89.44,1.73.68,2.6.58,2.14,2.7,5.98.1,7.65-.35.22-.94.17-1.21-.16-.04-.05-.07-.1-.11-.15c0,.88-.03,1.75-.11,2.62.05,1.86.04,3.73-.02,5.59-.02.65-.06,1.3-.11,1.94.59-.26,1.46.19,1.45.91-.03,1.8-.31,3.56-.7,5.31-.25,1.12-.67,2.16-.93,3.22-.36,1.5-.49,3.76-2.35,4.07-.34.91-.69,1.77-1.37,2.44-.05.16-.09.33-.15.49-.21.63-.51,1.25-.62,1.91-.01.05-.01.1-.02.15.03.21.01.43-.09.63-.02.14-.05.27-.11.41-.64,1.68-2.07,2.48-3.79,2.56-.91.04-1.87.09-2.79.02-1.85,1.13-3.81,2.16-5.06,3.95-3.46,4.33-3.16,10.72-.46,15.36c2.79,4.47,7.48,7.17,12.38,8.77c5.95,2.05,12.19,3.13,18.32,4.53c13.86,2.76,27.87,5.51,42.06,5.28c1.26-.02,2.52-.06,3.78-.08c3.53,1.88,7.81,1.54,11.69,1.63c5.73-.08,11.46-.29,17.18-.47c15.56-.35,31.08-2.41,46.3-5.57c3.79-1.04,5.92-4.27,6.15-7.64.01,0,.01,0,.02,0c10.36-2.25,24.4-2.97,28.83-14.39.84-2.44.33-4.98-.02-7.46Z" fill="#ffeeb2"/></g></g><g><g transform="translate(-24.000833-3.792482)"><path d="M157.88,410.68c.05-.17.15-.31.28-.44.03-.19.07-.37.11-.56-.29.54-.53,1.1-.7,1.69-.27,1.03-.35,2.02-.27,2.94.07-1.23.22-2.45.58-3.63Z" fill="#e8d48b"/><path d="M334.9,413.84c.12-.11.24-.19.36-.26-.05-.22-.02-.45.11-.69.94-1.66,2.65-2.56,4.33-3.31c1.14-.51,2.16-1.35,3.25-1.97.72-.41,1.46-.75,2.22-1.06.23-.18.45-.35.68-.52c1.98-4.47,1.89-9.58,1.77-14.38-.51-9.22-1.67-18.42-3.31-27.51-4.46-21.88-11.14-43.64-22.45-63-6.02-9.5-19.97-1.35-14.68,8.58c3.19,4.96,5.49,10.4,7.93,15.75c1.17,2.46,5.8,14.32,8.04,23.28c2.44,9.12,4.77,18.3,6.04,27.67.77,5.99,1.42,12.02,1.52,18.06c0,1.04-.03,2.09-.09,3.13-6.35,3.7-7.13,3.24-16.24,7.05-11.57,4.7-23.22,9.43-35.67,11.16-28.69,4.97-61.77,6.36-91.91-2.47-7.9-2.59-8.57-2.91-12.92-4.97-2.35-.98-4.35-2.99-6.98-3.1-.61-.13-1.21-.16-1.81-.13.15,1.8-.22,3.69-.34,5.49-.12,1.68-.68,3.51-1.12,5.14c0,.01,0,.01,0,.01.51-.2,1.14-.14,1.64.13.62.33.98.88,1.58,1.24c1.77.41,3.5,1.02,5.22,1.6c3.29,1.12,6.45,2.76,9.69,4.05.03.01.05.04.08.05.57-.12,1.21-.1,1.91.12.56.17.98.34,1.54.41.13.01.26.02.39.04.66.05,1.31.1,1.96.19.96.14,1.9.36,2.83.63.02,0,.03.01.05.01c2.04.46,3.97.69,5.95,1.43.83.31,1.9.46,2.65.9.15.09.29.2.43.32.08.02.17.02.25.04c1.59.32,3.09,1.05,4.66,1.35.98.19,1.84.21,2.68.82.13.09.23.2.34.3c1.44.28,2.87.62,4.28.84.74.12,1.48.26,2.21.42c1.17.01,2.33.09,3.43.16c2.14.14,4.3.24,6.46.39c1.72-.9,3.74-1.11,5.69-1.11c1.64,0,3.28.02,4.91.11c1.56.09,3.11.37,4.66.48c1.57.11,3.14.03,4.71.24c1.41.19,2.91.94,4.28.9c1.12-.03,2.22.18,3.01.77.96,0,1.92-.04,2.87-.11.22-.07.44-.12.68-.15.32-.04.61-.03.92.01.04,0,.07.01.11.01.18-.01.35-.03.53-.04.13-.06.27-.12.41-.17.8-.26,1.64-.2,2.47-.26c1.01-.07,2-.22,3-.35.52-.1,1.05-.19,1.57-.22c2.95-.19,6.01-.38,9.03-.31c1.65-.31,3.31-.57,4.96-.85c1.48-.25,2.95-.57,4.42-.85.02-.49.33-.99.95-1.06.33-.04.66-.07.99-.11.13-.22.34-.4.58-.47c4.32-1.19,8.78-1.09,13.17-1.8c2.16-.35,4.19-.61,6.39-.68.17-.01.34-.03.5-.04c1.34-.32,2.7-.54,4.06-.57.26-.01.47.08.63.22c3.94-1.55,7.86-3.16,11.8-4.68c4.36-1.78,8.82-3.36,13.1-5.32.12-.35.33-.69.64-.98Z" fill="#e8d48b"/><path d="M225.03,323.34c-.16-.26-.39-.53-.47-.83-.05-.19-.05-.4-.06-.6-.6-.92-1.17-1.85-1.67-2.83-.17-.34-.11-.73.07-1.04-.01-.04-.02-.09-.03-.13-.64-.45-1.27-.9-1.89-1.36-1.1-.06-2.2-.04-3.31-.04-2.63,0-5.26,0-7.89,0-.9,0-1.8,0-2.7,0-.2,0-.4,0-.6,0-3.57,0-7.15-.04-10.72-.27-1.56-.1-3.28-.05-4.69-.68-.49-.22-1-.34-1.49-.48-5.09-.27-10.16-.89-15.09-2.27-.54-.15-.83-.82-.67-1.32-3.04.94-4.86,3.39-5.43,6.12.28.37.57.75.83,1.14c1.7,0,3.08,1.14,4.05,2.56.51.74.84,1.54,1.19,2.37.53,1.25,1.14,2.37,1.28,3.72.15.21.26.43.35.66c10.19,2.17,20.73,2.81,31.12,2.31c3.34-.21,6.67-.51,9.99-.84c1.47-.14,2.98-.07,4.28-.83c2-.68,3.45-2.16,4.29-3.95-.23-.49-.47-.96-.74-1.41Z" fill="#e8d48b"/><path d="M352.3,214.26c-2.17-3.82-6.12-6.18-10.21-7.51-5.85-1.39-18.33-3.41-24.49.68-1.41.52-2.8,1.1-4.18,1.72-4.77,2.03-9.47,4.84-12.44,9.19-3.92,5.93-1.79,13.8,4.21,17.41c6.94,3.73,15.24,3.6,22.89,2.89c7.71-.99,16.35-1.93,21.92-7.97c4.12-4.35,5.08-11.12,2.3-16.41Z" fill="#ffc1b5"/><path d="M184.2,234.98c-1.8-4.48-6.18-7.43-10.56-9.09-5.13-1.84-10.69-2-16.08-1.56-.26-.02-.52-.06-.79-.06-2.74.18-5.46.62-8.07,1.44-2.64.67-5.22,1.57-7.7,2.76-11.09,4.73-12.68,18.13-1.91,24.32c4.46,2.6,9.6,3.63,14.69,4.16c3.13.44,6.63.48,9.26-.98c6.29-.33,12.69-1.43,17.57-5.49c4.24-3.73,5.96-10.3,3.59-15.5Z" fill="#ffc1b5"/><path d="M342.34,147.05c-3.06-15.91-11.89-31.02-25.72-39.83-4.92-3.22-10.96-5.59-17.38-6.93-1.08-1.1-2.17-2.19-3.31-3.23-9.08-8.25-20.72-13.28-32.65-15.79-4.1-.84-8.28-1.22-12.4-1.97-3.53-.78-7.37-1.47-10.61.61-5.14,3-6.27,9.13-4.03,13.75-.64,4.77,2.28,9.76,6.95,11.44-.26.84-.41,1.71-.44,2.6-4.09,2.26-7.59,5.5-9.89,9.72-6.46,12.49-1.74,25.39,6.86,35.47.13,2.26.45,4.62,1.04,7.07c3.37,13.28,13.34,25.64,26.23,30.19.22,6.21,5.96,11.08,12.52,9.53.89-.25,1.72-.61,2.48-1.06.54-.24,1.05-.53,1.48-.95-.25.19.61-.45.88-.68c1.15-1.23,1.93-2.7,2.32-4.3c0-.01.01-.03.01-.04c2.7,3.05,6.36,5.26,10.3,6.44.87.2,1.71.32,2.53.4c1.6,1.51,3.36,2.85,5.34,3.92c7.24,3.82,15.64,1.77,20.1-5.17.6-.93,1.12-1.9,1.59-2.9c1.89-1.41,3.64-3.02,5.27-4.69c5.71-6.06,10.34-13.45,11.61-21.8c1.41-7.25.33-14.63-1.08-21.8Z" fill="#fff"/></g></g><g transform="translate(.000001 0)"><g transform="translate(-24.000835-3.792482)"><path d="M385.09,313.06c-3.92-11.88-15.67-18.16-27.49-19.6-5.33-.74-10.7-1.1-16.08-1.2.49-.3.99-.59,1.48-.9c10.45-6.45,18.55-16.23,23.36-27.5c7.8-16.38,10.1-35.32,6.45-53.09-3.18-13.24-9.19-26.11-18.26-36.34-.37-.35-.72-.73-1.07-1.12-4.81-14.38-9.13-29.03-15.81-42.69-5.01-9.97-11.09-19.57-18.9-27.59-6.9-6.42-14.74-11.73-23.12-16c1.3-3.79,1.09-3.29,2.49-6.21c3.59-6.77,7.92-11.12,14.91-17.28c5.89-4.97,15.07-11.16,24.53-15.72.18-.08.3-.13.4-.18.2-.08.39-.17.59-.24c1.24-.47,2.51-.82,3.8-1.12.17-.04.35-.07.52-.1.06.44.13.87.23,1.31c1.2,6.24,6.49,11.04,12.24,13.25c5.05,1.65,10.84,1.26,15.69-.85c9.05-4.11,15.34-15.01,13.18-24.9-2.04-7.7-8.82-14.56-16.94-15.33-1.59-.23-3.19-.02-4.76.25-1.14.29-2.44.48-3.35,1.27-.19.14-.34.29-.49.45-4.53,2.34-7.93,6.45-10.99,10.44-1.51,1.94-2.84,4.11-3.74,6.42-.74-.31-1.6-.4-2.52-.14-4.32.68-8.3,2.64-12.11,4.72-4.15,2.29-8.28,4.62-12.13,7.39-12.07,8.42-24.08,18.84-28.85,33.16-5.37-2.29-10.9-4.19-16.5-5.72-31.59-7.86-63.58-1.34-92.08,13.48-12.8,6.5-24.67,15.15-34.67,25.54-2.85-3.92-6.72-7.09-10.6-9.95-6.58-5.13-14.36-8.59-22.56-10.16-7.14-1.51-14.61-1.88-21.71,0c.74-4.99.2-10.11-2.11-14.59-4.66-8.57-15.27-13.7-24.88-11.79-.49.15-.89.37-1.25.62-7.77,2.57-14.2,8.76-17.14,16.39-2.38,5.31-3.08,11.4-1.43,17.02c2.49,9.22,8.43,14.56,17.6,16.86c9.4,1.78,18.82-4.1,24.12-11.57.82-1.19,1.55-2.47,2.2-3.8.74-.09,1.48-.33,2.2-.61c2.17-.7,4.39-1.25,6.65-1.59c2.47-.3,4.97-.33,7.45-.13c3.11.27,5.79.67,10.89,2.03c8.88,2.57,15.22,6.98,21.88,13.37c2.34,2.56,1.67,1.59,3.17,4.05-6.69,8-12.29,16.87-16.45,26.48-3.58,9.27-5.29,19.18-6.4,29.01-1.5,11.3-.93,22.73.11,34.05.26,2.98.54,5.96,1.07,8.91.23,1.01.31,2.14.82,3.04-5.04,8.99-6.53,19.65-7.53,29.79-.56,7.86-.68,16.06,2.95,23.27c4.65,9.56,12.41,17.6,20.97,23.79c6.35,4.69,13.26,8.52,20.48,11.67-10.28,2.18-24.65,6.97-31.18,16.51-5.63,7.86-6.13,18.6-3,27.55c4.82,13.58,16.16,24.27,28.97,30.43c2.78,1.25,5.6,2.42,8.49,3.41.28.12.57.24.88.34-1.93,7.72-2.25,15.78-2.7,23.69-.66,12.52.34,25.22,4.8,37.02c2.46,7.27,5.15,14.63,9.51,20.99c3.7,4.74,8.46,8.75,13.76,11.59c4.24,2.18,9.02,2.74,13.71,3.04c9.05.72,18.21.44,27.15-1.2c9.56-2.3,17.74-14.64,21.62-23.15c1.29-2.85,2.28-5.8,3.16-8.79.67-.14,1.35-.24,2.03-.36c2.48-.39,2.58-.38,2.95-.43c4.08-.4,8.17-.79,12.23-1.32.06.98.14,1.95.12,2.85.22,3.25.68,6.49,1.31,9.69c1.6,7.48,4.54,15.97,12.23,19.03c5.07,2.61,10.89,1.53,16.36,1.36c8.12-.53,16.28-.53,24.34-1.74c5.1-.95,10.22-2.36,14.82-4.79c3.65-2.23,7.27-4.82,9.64-8.44c7.27-12.1,8.37-26.68,9.42-40.46.76-16.49-2.07-32.9-4.6-49.14-.66-3.82-1.26-7.66-1.87-11.5.9-.18,1.77-.43,2.47-.59c1.59-.47,3.12-1.13,4.64-1.77.63-.32,1.36-.55,1.99-.9.17-.07.35-.14.51-.23c13.39-5.03,24.82-16.47,27.1-30.93c1.17-7.21,1.12-14.83-1.37-21.78ZM350.83,43.12c.02-.1.04-.21.07-.33.67-2.09.21-1.1,1.91-4.08c2.18-3.29,2.12-3.18,5.41-6.75c2.7-2.52,1.98-2.26,5.91-4.1.08-.05.14-.11.22-.17.12-.02.23-.05.34-.07.75-.07,1.5-.09,2.24-.01.05.01.08.01.11.01.78.17,1.94.57,2.36.71.6.31,1.4.84,1.85,1.14c3.06,2.7,2.89,2.47,4.62,5.67.98,2.67.71,2.2.81,3.96-.17,2.31.15.95-.77,4.2-1.3,4.06-5.42,8.69-9.26,9.78-3.54.77-2.17.65-6.25.64-1.13-.2-2.26-.06-4.95-1.85-1.1-.76-3.02-2.27-3.86-4.04-.1-.2-.19-.4-.29-.61-.05-.14-.11-.31-.18-.54-.14-.47-.24-.94-.32-1.43-.02-.2-.03-.42-.04-.64c0-.5.03-.99.07-1.49ZM80.55,101.77c-2.55,5.71-7.51,9.37-10.71,10.63-3.94,1.32-3.38,1.35-6.4,1.25-1.29-.26-2.54-.69-3.77-1.16-3.43-1.67-3.04-1.32-5.34-3.61-.01-.01-.01-.02-.02-.03-.95-1.32-1.76-2.73-2.46-4.19-.07-.18-.14-.36-.2-.54-2.92-7.25.26-14.35,3.3-18.65c3.5-3.85,3.54-3.92,7.76-6.18.29-.12.42-.18.46-.21.81-.28,1.67-.48,2.36-.96c6.12-1.05,13.86,3.62,15.83,8.46c2.44,5.12.58,11.83-.81,15.19ZM122.4,276.31c-3.33-6.17-3.73-9.66-3.4-18.28.5-9.03,1.24-15.75,4.82-25.78.5-1.5.8-1.9,2.47-4.94.59-1.05,1.65-1.95,1.66-3.23.34-1.92-.72-3.38-2.17-4.07-1.49-8.54-2.17-21.13-1.89-32.21.53-11.35,3.39-27.53,6.77-35.75c13.43-29.74,39.57-49.53,67.5-60.28c23.08-9.35,46.32-11.52,68.11-6.96c18.12,4.1,34.25,12.39,46.57,23.61c13.07,13.36,21.18,31.18,27.31,50.16c1.57,4.72,3.24,9.4,4.73,14.14.08.19.14.4.21.6-.11.36-.17.73-.16,1.12-.01,1.51.86,2.65,1.95,3.58c1.03,1,2.03,2.05,2.97,3.13c3.92,4.08,10.21,15.77,11.99,21.02c7.5,18.39,5.19,40.14-1.39,55.3-4.05,9.2-7.38,14.99-13.51,20.74-4.85,5.14-16.34,11.38-23.45,14.48-.36.03-.73.05-1.09.08-.04,0-.07,0-.11.01-.2.12-.39.23-.6.33-.75.36-1.49.77-2.23,1.16-.47.25-.95.45-1.44.64c0,0,0,.01-.01.01-.35.14-.71.26-1.06.4-.07.03-.14.05-.21.08c0,0-.01,0-.01,0-.03.01-.06.02-.09.03-.73.33-1.47.62-2.22.84-.14.05-.28.11-.42.16-.45.08-.85.23-1.22.45-3.02,1.08-6.07,2.06-9.15,2.97-.1.07-.22.13-.35.16-.13.1-.27.18-.44.25-.78.54-1.88.89-2.77,1.02-1.11.16-2.19.46-3.26.78-1.05.32-2.08.73-3.17.92-.51.09-1.03.12-1.55.19-.41.06-1,.07-1.32.21-.26.11-.55.14-.8.08-3.86.92-7.73,1.78-11.61,2.6-21.24,4.68-37.53,7.29-58.35,8.9-18.6,1.51-32.39.99-49.35-4.71-19.35-6.17-38.59-17.39-48.26-33.94ZM345.68,394.38c.39,2.62.75,5.2,1.08,7.8-1.46.72-2.95,2-4.16,2.5-5.65,3.19-11.15,6.67-17,9.48-14.41,7-33.84,10.63-50.49,11.81-17.2,1.58-34.54,1.98-51.77.78-16.06-1.09-36.47-4.81-50.37-10.92-2.65-1.14-5.25-2.38-7.78-3.75.07-1.48.15-2.94.25-4.36c1.94.87,3.96,1.59,5.9,2.38c14.59,5.37,30.33,5.46,45.65,6.65c17.54,1.24,35.14,1.35,52.67-.17c12.16-.79,24.24-2.53,36.09-5.38c10.16-2.08,20.53-4.21,29.68-9.29c3.67-2.1,7.31-4.47,10.25-7.53Zm-3.1-3.95c-3.23,3.42-5.66,4.84-10.37,7.54-8.11,4.48-19.2,6.61-29.86,8.87-12.39,2.89-21.61,3.97-34.11,4.85-17.71,1.5-35.49,1.22-53.2-.06-17.67-1.17-34.81-1.86-49.11-9.27.3-2.63.66-5.14,1.14-7.48.02-.14.05-.29.07-.43.62.11,1.25.15,1.84.17c2.15-.08,4.11-1.12,5.68-2.55c12.05-11.45,9.65-41.38,5.74-56.36-1.49-5.48-3.09-11.12-6.08-15.98.07.02.15.04.22.06c9.36,2.7,19.07,3.83,28.79,3.92.1.41.31.79.63,1.09.34.39.72.89,1.14,1.46c4.23,6.75,8.49,13.5,13.32,19.85c4.73,6.15,10.06,11.83,15.72,17.13c7.39,6.27,16.1,15.32,26.63,13.88c5.99-.72,11.02-4.51,14.89-8.95c4.7-4.96,7.24-11.4,9.72-17.65c5.37-12.26,9.65-25,12.37-38.11.14-.62.27-1.25.39-1.88.12-.31.23-.61.35-.92c5.28-1.39,10.52-2.92,15.66-4.69c9.48,7.78,17.02,23.79,21.67,38.27c4.22,12.85,5.78,26.34,8.05,39.62.26,1.65.52,3.25.76,4.81-.85,1.4-.84,1.46-2.05,2.81ZM235.37,342.14c4.1,4.93,8.29,9.84,13.1,14.08c2.73,2.29,6.06,3.71,9.39,4.88c3.33,1.15,7.3.39,9.73-2.23c1.9-1.95,2.85-4.54,3.97-6.97c2.24-5.06,4.8-9.97,7.01-15.04c2.25-5.08,4.48-10.17,6.93-15.16c1.54-3.36,3.51-6.55,4.73-10.04.78-.18,1.55-.38,2.33-.57-1.72,4.51-3.36,9.05-4.73,13.68-3.26,9.6-6.28,17.85-9.98,25.8-3.18,7.28-7.11,13.58-11.72,16.52-5.51,3.46-8.32,2.4-14.73-.87-11.02-5.94-18.68-12.06-27.08-21.87-5.4-5.9-9.29-12.35-14.25-19.54-.25-.4-.5-.79-.74-1.19c1.7-.06,3.4-.14,5.1-.25c1.51-.09,3.02-.22,4.53-.32c1.15,1.3,2.28,2.62,3.42,3.93c4.38,5.03,8.77,10.03,12.99,15.16Zm-10.19-19.58c19.14-1.7,38.12-4.83,56.87-9.08.74-.16,1.48-.32,2.23-.48-1.54,3.28-3.78,7.31-5.4,11.07-4.71,10.27-9.13,20.72-14.33,30.74-.89,1.37-2.76,2.01-4.05,1.82-3.94-1.04-6.74-2.55-8.91-4.31-7.85-7.15-14.13-15.81-21.17-23.72-1.77-2-3.5-4.03-5.24-6.04Zm-65.9,60.1c-3.79-1.46-3.6-1.32-7.95-3.52-11.48-6.55-20.3-15.71-23.26-27.67-4.18-20.16,12.93-27.48,32.5-31.26c1.68-.33,3.67-.12,5.04-1.28.44-.32.77-.68,1.01-1.08.09.13.19.26.32.38c4,4.24,5.76,8.89,7.75,15.58c3.72,12.79,4.47,23.89,3.32,37.81-.67,7.08-4.24,15.72-7.92,17.65-.35.15-.72.26-1.09.33-.08,0-.16.01-.26.01-.11-.01-.21-.01-.29-.02-.08-.02-.17-.03-.25-.05-.01-.08,0-.16-.01-.24-.16-1.74-1.33-2.82-2.72-3.23-.19-.42-.45-.82-.78-1.15-1.46-1.33-3.64-1.45-5.41-2.26Zm188.06,57.4c-.48,4.62-1.39,10.73-3.49,17.64-1.04,3.43-3.26,8.13-5.12,10.02-6.69,6.63-16.71,8.55-28.7,9.01-7.16.28-14.32.93-21.49.97-.37-.02-.74-.06-1.11-.1-.05-.01-.1-.02-.17-.03-.63-.13-1.24-.35-1.84-.59-.19-.09-.42-.2-.67-.32-2.32-1.23-1.97-1.15-2.82-1.9-.18-.16-.35-.35-.5-.51-.4-.53-.77-1.09-1.08-1.67-2.53-4.77-4.12-12.42-4.33-18.45-.13-.89-.08-1.86-.04-2.83.68-.15,1.32-.38,1.88-.82c2.64-1.79,1.72-6.25-1.36-7-1.85-.4-3.75.38-5.61.51-4.57.64-4.19.61-7.36.99-4.43.43-8.87.78-13.26,1.54-3.03.32-5.92,1.43-6.83,4.61-1.8,5.64-2.13,7.22-4.22,11.21-4.13,8.01-10.25,14.73-14.21,16.11-6.24,1.58-16.19,1.93-25.49,1.27-5.67-.4-7.67-.66-11.1-2.36-4.67-2.74-5.97-3.9-10.29-8.54-3.85-5.88-5.23-9.53-7.09-14.54-4.55-12.39-6.33-20.32-6.18-32.61.03-1.39.06-2.75.1-4.1c28.83,14.46,65.1,15.81,96.63,14.43c22.69-1.4,45.94-3.56,66.68-13.58c6.12-2.98,11.9-6.61,17.82-9.97.37-.26.81-.5,1.28-.75.45,4.44.78,9.12.97,14.42.11,5.98-.33,11.97-1,17.94Zm26.07-94.29c-1.27,1.71-.31.54-2.23,2.74-1.3,1.39-2.69,2.7-4.17,3.91-4.5,3.28-8.71,5.39-11.81,6.38-.36.09-.68.23-.99.41-2.47.61-3.88.81-6.03.98-1.11-6.09-2.43-12.13-4.31-18.05-4.71-14.48-10.82-29.16-21.35-40.39.93-.38,1.88-.75,2.8-1.15c8.38-.51,16.79-.59,25.16.08c11.69.89,22.01,3.47,26.57,13.71c3.38,7.72,3.3,22.14-3.64,31.38ZM208.99,220.74c.08-.95.11-1.89.09-2.82-.15-4.55-1.55-8.96-3.64-12.99-1.53-2.99-3.26-6.16-6.31-7.82-4.78-2.44-10.01,1.31-12.28,5.53-3.07,5.3-3.91,11.55-3.29,17.59.52,4.73,1.39,9.77,4.31,13.65c3.61,4.31,10.31,5.39,15.04,2.31c2.58-1.78,4.29-4.6,5.43-7.47c1.11-2.53,1.02-5.3.65-7.98Z" fill="#0d1739"/><path d="M291.65,189.31c-1.55-3.27-4.31-6.52-8.13-6.87-1.07-.01-2,.25-2.84.7-.51.06-1,.28-1.39.7-4.42,4.74-6.78,10.97-8.17,17.22-1.33,5.59-1.6,11.64.68,17.01c1.11,2.91,3.1,5.55,5.73,7.25c2.89,1.62,6.5,1.09,9.39-.27c12.28-7.18,10.04-24.71,4.73-35.74Z" fill="#0d1739"/><path d="M335.37,177.76c-3.31-6.2-8.13-11.51-13.79-15.65-3.92-3.09-8.26-5.64-12.95-7.37-7.3-2.49-15.21-3.7-22.91-2.98-4.88.54-9.48,2.47-13.77,4.77-2.25,1.2-4.23,2.83-6.33,4.28-2.86,1.82-5.39,4.11-7.05,7.1-.52,1.09-1.47,2.18-1.72,3.38-8.05,12.3-10.18,28.98-6.44,43.05-2.57.55-5.26.92-7.46,1.16-2.55.21-5.11.32-7.67.22.84-5.29,1.09-10.69-.07-15.94-2.44-10.44-8.49-20.13-17.3-26.34-4.16-2.95-9.07-4.66-13.95-6-6.76-1.64-13.75-2.15-20.68-1.84-5.77.17-11.53,1.1-16.9,3.19-.41.3-.88.55-1.31.77-.85.42-1.64.9-2.44,1.41-1.79,1.13-3.31,2.46-4.86,3.88-1.52,1.39-2.89,3-4.26,4.55-.73.82-1.46,1.65-2.15,2.5-.43.53-.92,1.01-1.39,1.52-.01.22-.09.45-.27.63-.09.09-.16.18-.24.27c0,.07-.02.15-.01.22-2.26,3.31-4.12,6.88-5.29,10.73-2,6.81-2.3,13.97-2.35,21.03-.05,7.34.36,14.79,2.74,21.79c4.44,13.08,16.76,22.06,29.46,26.33c8.99,2.58,18.62,1.4,27.18-2.15c16.9-6.88,29.09-23.07,32.95-40.7.07-.29.13-.58.19-.88c5.51.34,12.16-.29,17.66-1.57c3.42,8.3,9.75,15.19,17,20.42c10.56,8.06,25.01,10.86,37.74,6.9c5.54-1.53,10.58-4.38,14.98-8.04c4.53-3.49,8.64-7.58,12.01-12.21c9.68-14.13,9.94-33.61,1.65-48.43ZM230.34,215.14c-.59-.14-1.18-.31-1.75-.52-.23-.11-.45-.24-.66-.39-.04-.04-.09-.08-.15-.14-.07-.08-.11-.13-.16-.18-.1-.14-.2-.28-.28-.43-.02-.04-.04-.08-.05-.11.13-.26.27-.5.44-.73.01-.01.01-.01.02-.02c1.16-1.16.34-.52,1.97-1.5c2.81-1.71.33-5.91-2.52-4.32-4.34,2.26-6.93,7.08-2.79,10.97c1.03,1.02,2.77,1.76,4.96,2.24-.83,3.58-1.84,6.92-2.66,9.02-5.07,11.38-11.49,19.4-20.56,25.09-10.07,5.96-20.15,8.31-30.62,5.5-8.1-2.72-16.14-7.41-22.16-15.34-6.06-7.52-7.07-20.73-6.44-33.54.22-13.16,3.94-22.41,13.66-31.64.78-.81,1.44-1.41,2.04-1.89.41-.43.84-.85,1.28-1.25.62-.55,1.25-1.07,1.94-1.54.58-.39,1.31-.9,2.02-1c.06-.01.12,0,.18,0c4.55-1.79,9.17-2.53,14.39-2.81c13.08-.78,26.92,1.68,35.06,8.75c8.49,7.54,13.62,17.9,13.5,28.51.05,2.07-.21,4.62-.66,7.27Zm99.71,7.56c-3.91,5.64-10.6,11.91-17.32,15.88-10.59,6.01-24.84,6.13-35.58.25-7.44-4.24-13.42-9.58-17.62-16.06-1.05-1.64-1.93-3.35-2.68-5.1c2.27-.84,4.06-1.82,5.07-2.9c1.63-1.57,2.69-3.82,2.52-6.11-.08-2.94-3.07-7.44-5.81-3.93-.54.91-.4,2.14.3,2.92.05.07.1.15.15.22.08.13.14.26.2.39.07.21.13.43.17.65.01.15.01.32.01.47c0,0,0,0,0,.01-.09,1.5-1.83,2.67-4.26,3.59-2.27-8.05-1.99-16.83-.06-25.04c1.38-6.07,3.96-11.55,7.36-16.01-.19-.34-.19-.75.21-1.08.77-.64,1.54-1.27,2.32-1.9c1.07-1.12,2.2-2.15,3.37-3.08.01-.02.02-.03.03-.05c1.43-1.42,3-2.65,4.52-3.96.74-.64,1.55-1.19,2.42-1.64.8-.42,1.65-.75,2.46-1.14.27-.13.57-.15.83-.06.02-.09.04-.17.04-.26c2.1-.85,4.35-1.49,7.08-2.02c6.42-.84,18.51.75,25.23,4.44c15.94,8.35,25.86,23.27,25.28,40.85-.18,7.34-2.12,14.13-6.24,20.67Zm-61.84,37.75c-1.09-.02-1.8.76-2.57,1.41-.18.14-.41.32-.58.46-2.78,2.02-3.54,2.32-6.23,3.13-1.99.41-4.36.08-8.03-.76-3.12-.6-6.33-1.47-9.52-1.03-3.29.43-6.08,2.32-9.04,3.67-1.17.58-4.96,1.78-7.34,1.7-2.87-.02-2.45.07-5.35-.73-.02-.01-.02-.01-.03-.01-.31-.14-.61-.31-.89-.49-2.37-2.67-6.29.4-3.91,3.22c4.3,3.88,11.41,3.48,16.65,1.96c2.71-.84,5.21-2.21,7.73-3.49c1-.4,2.05-.71,3.11-.92.18-.01.35-.03.53-.04c4.44-.23,11.34,3.18,17.68,1.7c3.02-.87,5.85-2.36,8.25-4.39.94-.74,2.11-1.53,2.06-2.87.01-1.35-1.19-2.54-2.52-2.52Z" fill="#0d1739"/></g></g><g transform="translate(.000001 0)"><g transform="translate(-24.000833-3.792482)"><path d="M279.17,184.42c-.8-.19-1.7-.25-2.56-.13-.8-.11-1.65.02-2.48.51-6.66,4.27-.65,14.71,6.28,10.68c4.31-2.69,3.9-9.63-1.24-11.06Z" fill="#fff"/><path d="M188.56,197.85c-.06,0-.11.01-.17.01-.81-.12-1.67.01-2.51.51-2.94,1.68-3.69,6.07-1.31,8.53c2.32,2.74,6.77,2.21,8.57-.83c2.19-3.59-.27-8.32-4.58-8.22Z" fill="#fff"/></g></g></g></g>
<script><![CDATA[
!function(t,e){"object"==typeof exports&&"undefined"!=typeof module?module.exports=e():"function"==typeof __SVGATOR_DEFINE__&&__SVGATOR_DEFINE__.amd?__SVGATOR_DEFINE__(e):((t="undefined"!=typeof globalThis?globalThis:t||self).__SVGATOR_PLAYER__=t.__SVGATOR_PLAYER__||{},t.__SVGATOR_PLAYER__["91c80d77"]=e())}(this,(function(){"use strict";function t(t,e){var n=Object.keys(t);if(Object.getOwnPropertySymbols){var r=Object.getOwnPropertySymbols(t);e&&(r=r.filter((function(e){return Object.getOwnPropertyDescriptor(t,e).enumerable}))),n.push.apply(n,r)}return n}function e(e){for(var n=1;n<arguments.length;n++){var r=null!=arguments[n]?arguments[n]:{};n%2?t(Object(r),!0).forEach((function(t){u(e,t,r[t])})):Object.getOwnPropertyDescriptors?Object.defineProperties(e,Object.getOwnPropertyDescriptors(r)):t(Object(r)).forEach((function(t){Object.defineProperty(e,t,Object.getOwnPropertyDescriptor(r,t))}))}return e}function n(t){return(n="function"==typeof Symbol&&"symbol"==typeof Symbol.iterator?function(t){return typeof t}:function(t){return t&&"function"==typeof Symbol&&t.constructor===Symbol&&t!==Symbol.prototype?"symbol":typeof t})(t)}function r(t,e){if(!(t instanceof e))throw new TypeError("Cannot call a class as a function")}function i(t,e){for(var n=0;n<e.length;n++){var r=e[n];r.enumerable=r.enumerable||!1,r.configurable=!0,"value"in r&&(r.writable=!0),Object.defineProperty(t,r.key,r)}}function o(t,e,n){return e&&i(t.prototype,e),n&&i(t,n),t}function u(t,e,n){return e in t?Object.defineProperty(t,e,{value:n,enumerable:!0,configurable:!0,writable:!0}):t[e]=n,t}function a(t){return(a=Object.setPrototypeOf?Object.getPrototypeOf:function(t){return t.__proto__||Object.getPrototypeOf(t)})(t)}function l(t,e){return(l=Object.setPrototypeOf||function(t,e){return t.__proto__=e,t})(t,e)}function s(){if("undefined"==typeof Reflect||!Reflect.construct)return!1;if(Reflect.construct.sham)return!1;if("function"==typeof Proxy)return!0;try{return Boolean.prototype.valueOf.call(Reflect.construct(Boolean,[],(function(){}))),!0}catch(t){return!1}}function f(t,e,n){return(f=s()?Reflect.construct:function(t,e,n){var r=[null];r.push.apply(r,e);var i=new(Function.bind.apply(t,r));return n&&l(i,n.prototype),i}).apply(null,arguments)}function c(t,e){if(e&&("object"==typeof e||"function"==typeof e))return e;if(void 0!==e)throw new TypeError("Derived constructors may only return object or undefined");return function(t){if(void 0===t)throw new ReferenceError("this hasn't been initialised - super() hasn't been called");return t}(t)}function h(t,e,n){return(h="undefined"!=typeof Reflect&&Reflect.get?Reflect.get:function(t,e,n){var r=function(t,e){for(;!Object.prototype.hasOwnProperty.call(t,e)&&null!==(t=a(t)););return t}(t,e);if(r){var i=Object.getOwnPropertyDescriptor(r,e);return i.get?i.get.call(n):i.value}})(t,e,n||t)}function v(t){return function(t){if(Array.isArray(t))return d(t)}(t)||function(t){if("undefined"!=typeof Symbol&&null!=t[Symbol.iterator]||null!=t["@@iterator"])return Array.from(t)}(t)||function(t,e){if(!t)return;if("string"==typeof t)return d(t,e);var n=Object.prototype.toString.call(t).slice(8,-1);"Object"===n&&t.constructor&&(n=t.constructor.name);if("Map"===n||"Set"===n)return Array.from(t);if("Arguments"===n||/^(?:Ui|I)nt(?:8|16|32)(?:Clamped)?Array$/.test(n))return d(t,e)}(t)||function(){throw new TypeError("Invalid attempt to spread non-iterable instance.\nIn order to be iterable, non-array objects must have a [Symbol.iterator]() method.")}()}function d(t,e){(null==e||e>t.length)&&(e=t.length);for(var n=0,r=new Array(e);n<e;n++)r[n]=t[n];return r}function y(t,e,n){if(Number.isInteger(t))return t;var r=Math.pow(10,e);return Math[n]((+t+Number.EPSILON)*r)/r}Number.isInteger||(Number.isInteger=function(t){return"number"==typeof t&&isFinite(t)&&Math.floor(t)===t}),Number.EPSILON||(Number.EPSILON=2220446049250313e-31);var g=p(Math.pow(10,-6));function p(t){var e=arguments.length>1&&void 0!==arguments[1]?arguments[1]:6;return y(t,e,"round")}function m(t,e){var n=arguments.length>2&&void 0!==arguments[2]?arguments[2]:g;return Math.abs(t-e)<n}p(Math.pow(10,-2)),p(Math.pow(10,-4));var b=Math.PI/180;function w(t){return t}function k(t,e,n){var r=1-n;return 3*n*r*(t*r+e*n)+n*n*n}function _(){var t=arguments.length>0&&void 0!==arguments[0]?arguments[0]:0,e=arguments.length>1&&void 0!==arguments[1]?arguments[1]:0,n=arguments.length>2&&void 0!==arguments[2]?arguments[2]:1,r=arguments.length>3&&void 0!==arguments[3]?arguments[3]:1;return t<0||t>1||n<0||n>1?null:m(t,e)&&m(n,r)?w:function(i){if(i<=0)return t>0?i*e/t:0===e&&n>0?i*r/n:0;if(i>=1)return n<1?1+(i-1)*(r-1)/(n-1):1===n&&t<1?1+(i-1)*(e-1)/(t-1):1;for(var o,u=0,a=1;u<a;){var l=k(t,n,o=(u+a)/2);if(m(i,l))break;l<i?u=o:a=o}return k(e,r,o)}}function A(){return 1}function x(t){return 1===t?1:0}function O(){var t=arguments.length>0&&void 0!==arguments[0]?arguments[0]:1,e=arguments.length>1&&void 0!==arguments[1]?arguments[1]:0;if(1===t){if(0===e)return x;if(1===e)return A}var n=1/t;return function(t){return t>=1?1:(t+=e*n)-t%n}}var S=Math.sin,E=Math.cos,j=Math.acos,M=Math.asin,P=Math.tan,B=Math.atan2,I=Math.PI/180,T=180/Math.PI,N=Math.sqrt,R=function(){function t(){var e=arguments.length>0&&void 0!==arguments[0]?arguments[0]:1,n=arguments.length>1&&void 0!==arguments[1]?arguments[1]:0,i=arguments.length>2&&void 0!==arguments[2]?arguments[2]:0,o=arguments.length>3&&void 0!==arguments[3]?arguments[3]:1,u=arguments.length>4&&void 0!==arguments[4]?arguments[4]:0,a=arguments.length>5&&void 0!==arguments[5]?arguments[5]:0;r(this,t),this.m=[e,n,i,o,u,a],this.i=null,this.w=null,this.s=null}return o(t,[{key:"determinant",get:function(){var t=this.m;return t[0]*t[3]-t[1]*t[2]}},{key:"isIdentity",get:function(){if(null===this.i){var t=this.m;this.i=1===t[0]&&0===t[1]&&0===t[2]&&1===t[3]&&0===t[4]&&0===t[5]}return this.i}},{key:"point",value:function(t,e){var n=this.m;return{x:n[0]*t+n[2]*e+n[4],y:n[1]*t+n[3]*e+n[5]}}},{key:"translateSelf",value:function(){var t=arguments.length>0&&void 0!==arguments[0]?arguments[0]:0,e=arguments.length>1&&void 0!==arguments[1]?arguments[1]:0;if(!t&&!e)return this;var n=this.m;return n[4]+=n[0]*t+n[2]*e,n[5]+=n[1]*t+n[3]*e,this.w=this.s=this.i=null,this}},{key:"rotateSelf",value:function(){var t=arguments.length>0&&void 0!==arguments[0]?arguments[0]:0;if(t%=360){var e=S(t*=I),n=E(t),r=this.m,i=r[0],o=r[1];r[0]=i*n+r[2]*e,r[1]=o*n+r[3]*e,r[2]=r[2]*n-i*e,r[3]=r[3]*n-o*e,this.w=this.s=this.i=null}return this}},{key:"scaleSelf",value:function(){var t=arguments.length>0&&void 0!==arguments[0]?arguments[0]:1,e=arguments.length>1&&void 0!==arguments[1]?arguments[1]:1;if(1!==t||1!==e){var n=this.m;n[0]*=t,n[1]*=t,n[2]*=e,n[3]*=e,this.w=this.s=this.i=null}return this}},{key:"skewSelf",value:function(t,e){if(e%=360,(t%=360)||e){var n=this.m,r=n[0],i=n[1],o=n[2],u=n[3];t&&(t=P(t*I),n[2]+=r*t,n[3]+=i*t),e&&(e=P(e*I),n[0]+=o*e,n[1]+=u*e),this.w=this.s=this.i=null}return this}},{key:"resetSelf",value:function(){var t=arguments.length>0&&void 0!==arguments[0]?arguments[0]:1,e=arguments.length>1&&void 0!==arguments[1]?arguments[1]:0,n=arguments.length>2&&void 0!==arguments[2]?arguments[2]:0,r=arguments.length>3&&void 0!==arguments[3]?arguments[3]:1,i=arguments.length>4&&void 0!==arguments[4]?arguments[4]:0,o=arguments.length>5&&void 0!==arguments[5]?arguments[5]:0,u=this.m;return u[0]=t,u[1]=e,u[2]=n,u[3]=r,u[4]=i,u[5]=o,this.w=this.s=this.i=null,this}},{key:"recomposeSelf",value:function(){var t=arguments.length>0&&void 0!==arguments[0]?arguments[0]:null,e=arguments.length>1&&void 0!==arguments[1]?arguments[1]:null,n=arguments.length>2&&void 0!==arguments[2]?arguments[2]:null,r=arguments.length>3&&void 0!==arguments[3]?arguments[3]:null,i=arguments.length>4&&void 0!==arguments[4]?arguments[4]:null;return this.isIdentity||this.resetSelf(),t&&(t.x||t.y)&&this.translateSelf(t.x,t.y),e&&this.rotateSelf(e),n&&(n.x&&this.skewSelf(n.x,0),n.y&&this.skewSelf(0,n.y)),!r||1===r.x&&1===r.y||this.scaleSelf(r.x,r.y),i&&(i.x||i.y)&&this.translateSelf(i.x,i.y),this}},{key:"decompose",value:function(){var t=arguments.length>0&&void 0!==arguments[0]?arguments[0]:0,e=arguments.length>1&&void 0!==arguments[1]?arguments[1]:0,n=this.m,r=n[0]*n[0]+n[1]*n[1],i=[[n[0],n[1]],[n[2],n[3]]],o=N(r);if(0===o)return{origin:{x:p(n[4]),y:p(n[5])},translate:{x:p(t),y:p(e)},scale:{x:0,y:0},skew:{x:0,y:0},rotate:0};i[0][0]/=o,i[0][1]/=o;var u=n[0]*n[3]-n[1]*n[2]<0;u&&(o=-o);var a=i[0][0]*i[1][0]+i[0][1]*i[1][1];i[1][0]-=i[0][0]*a,i[1][1]-=i[0][1]*a;var l=N(i[1][0]*i[1][0]+i[1][1]*i[1][1]);if(0===l)return{origin:{x:p(n[4]),y:p(n[5])},translate:{x:p(t),y:p(e)},scale:{x:p(o),y:0},skew:{x:0,y:0},rotate:0};i[1][0]/=l,i[1][1]/=l,a/=l;var s=0;return i[1][1]<0?(s=j(i[1][1])*T,i[0][1]<0&&(s=360-s)):s=M(i[0][1])*T,u&&(s=-s),a=B(a,N(i[0][0]*i[0][0]+i[0][1]*i[0][1]))*T,u&&(a=-a),{origin:{x:p(n[4]),y:p(n[5])},translate:{x:p(t),y:p(e)},scale:{x:p(o),y:p(l)},skew:{x:p(a),y:0},rotate:p(s)}}},{key:"clone",value:function(){var t=this.m;return new this.constructor(t[0],t[1],t[2],t[3],t[4],t[5])}},{key:"toString",value:function(){var t=arguments.length>0&&void 0!==arguments[0]?arguments[0]:" ";if(null===this.s){var e=this.m.map((function(t){return p(t)}));1===e[0]&&0===e[1]&&0===e[2]&&1===e[3]?this.s="translate("+e[4]+t+e[5]+")":this.s="matrix("+e.join(t)+")"}return this.s}}],[{key:"create",value:function(t){return t?Array.isArray(t)?f(this,v(t)):t instanceof this?t.clone():(new this).recomposeSelf(t.origin,t.rotate,t.skew,t.scale,t.translate):new this}}]),t}();function F(t,e,n){return t>=.5?n:e}function D(t,e,n){return 0===t||e===n?e:t*(n-e)+e}function C(t,e,n){var r=D(t,e,n);return r<=0?0:r}function q(t,e,n){var r=D(t,e,n);return r<=0?0:r>=1?1:r}function L(t,e,n){return 0===t?e:1===t?n:{x:D(t,e.x,n.x),y:D(t,e.y,n.y)}}function V(t,e,n){return 0===t?e:1===t?n:{x:C(t,e.x,n.x),y:C(t,e.y,n.y)}}function G(t,e,n){var r=function(t,e,n){return Math.round(D(t,e,n))}(t,e,n);return r<=0?0:r>=255?255:r}function z(t,e,n){return 0===t?e:1===t?n:{r:G(t,e.r,n.r),g:G(t,e.g,n.g),b:G(t,e.b,n.b),a:D(t,null==e.a?1:e.a,null==n.a?1:n.a)}}function Y(t,e,n){var r=e.length;if(r!==n.length)return F(t,e,n);for(var i=new Array(r),o=0;o<r;o++)i[o]=D(t,e[o],n[o]);return i}function U(t,e){for(var n=[],r=0;r<t;r++)n.push(e);return n}function W(t,e){if(--e<=0)return t;var n=(t=Object.assign([],t)).length;do{for(var r=0;r<n;r++)t.push(t[r])}while(--e>0);return t}var $,H=function(){function t(e){r(this,t),this.list=e,this.length=e.length}return o(t,[{key:"setAttribute",value:function(t,e){for(var n=this.list,r=0;r<this.length;r++)n[r].setAttribute(t,e)}},{key:"removeAttribute",value:function(t){for(var e=this.list,n=0;n<this.length;n++)e[n].removeAttribute(t)}},{key:"style",value:function(t,e){for(var n=this.list,r=0;r<this.length;r++)n[r].style[t]=e}}]),t}(),Q=/-./g,X=function(t,e){return e.toUpperCase()};function J(t){return"function"==typeof t?t:F}function K(t){return t?"function"==typeof t?t:Array.isArray(t)?function(t){var e=arguments.length>1&&void 0!==arguments[1]?arguments[1]:w;if(!Array.isArray(t))return e;switch(t.length){case 1:return O(t[0])||e;case 2:return O(t[0],t[1])||e;case 4:return _(t[0],t[1],t[2],t[3])||e}return e}(t,null):function(t,e){var n=arguments.length>2&&void 0!==arguments[2]?arguments[2]:w;switch(t){case"linear":return w;case"steps":return O(e.steps||1,e.jump||0)||n;case"bezier":case"cubic-bezier":return _(e.x1||0,e.y1||0,e.x2||0,e.y2||0)||n}return n}(t.type,t.value,null):null}function Z(t,e,n){var r=arguments.length>3&&void 0!==arguments[3]&&arguments[3],i=e.length-1;if(t<=e[0].t)return r?[0,0,e[0].v]:e[0].v;if(t>=e[i].t)return r?[i,1,e[i].v]:e[i].v;var o,u=e[0],a=null;for(o=1;o<=i;o++){if(!(t>e[o].t)){a=e[o];break}u=e[o]}return null==a?r?[i,1,e[i].v]:e[i].v:u.t===a.t?r?[o,1,a.v]:a.v:(t=(t-u.t)/(a.t-u.t),u.e&&(t=u.e(t)),r?[o,t,n(t,u.v,a.v)]:n(t,u.v,a.v))}function tt(t,e){var n=arguments.length>2&&void 0!==arguments[2]?arguments[2]:null;return t&&t.length?"function"!=typeof e?null:("function"!=typeof n&&(n=null),function(r){var i=Z(r,t,e);return null!=i&&n&&(i=n(i)),i}):null}function et(t,e){return t.t-e.t}function nt(t,e,r,i,o){var u,a="@"===r[0],l="#"===r[0],s=$[r],f=F;switch(a?(u=r.substr(1),r=u.replace(Q,X)):l&&(r=r.substr(1)),n(s)){case"function":if(f=s(i,o,Z,K,r,a,e,t),l)return f;break;case"string":f=tt(i,J(s));break;case"object":if((f=tt(i,J(s.i),s.f))&&"function"==typeof s.u)return s.u(e,f,r,a,t)}return f?function(t,e,n){if(arguments.length>3&&void 0!==arguments[3]&&arguments[3])return t instanceof H?function(r){return t.style(e,n(r))}:function(r){return t.style[e]=n(r)};if(Array.isArray(e)){var r=e.length;return function(i){var o=n(i);if(null==o)for(var u=0;u<r;u++)t[u].removeAttribute(e);else for(var a=0;a<r;a++)t[a].setAttribute(e,o)}}return function(r){var i=n(r);null==i?t.removeAttribute(e):t.setAttribute(e,i)}}(e,r,f,a):null}function rt(t,e,r,i){if(!i||"object"!==n(i))return null;var o=null,u=null;return Array.isArray(i)?u=function(t){if(!t||!t.length)return null;for(var e=0;e<t.length;e++)t[e].e&&(t[e].e=K(t[e].e));return t.sort(et)}(i):(u=i.keys,o=i.data||null),u?nt(t,e,r,u,o):null}function it(t,e,n){if(!n)return null;var r=[];for(var i in n)if(n.hasOwnProperty(i)){var o=rt(t,e,i,n[i]);o&&r.push(o)}return r.length?r:null}function ot(t,e){if(!e.settings.duration||e.settings.duration<0)return null;var n,r,i,o,u,a=function(t,e){if(!e)return null;var n=[];if(Array.isArray(e))for(var r=e.length,i=0;i<r;i++){var o=e[i];if(2===o.length){var u=null;if("string"==typeof o[0])u=t.getElementById(o[0]);else if(Array.isArray(o[0])){u=[];for(var a=0;a<o[0].length;a++)if("string"==typeof o[0][a]){var l=t.getElementById(o[0][a]);l&&u.push(l)}u=u.length?1===u.length?u[0]:new H(u):null}if(u){var s=it(t,u,o[1]);s&&(n=n.concat(s))}}}else for(var f in e)if(e.hasOwnProperty(f)){var c=t.getElementById(f);if(c){var h=it(t,c,e[f]);h&&(n=n.concat(h))}}return n.length?n:null}(t,e.elements);return a?(n=a,r=e.settings,i=r.duration,o=n.length,u=null,function(t,e){var a=r.iterations||1/0,l=(r.alternate&&a%2==0)^r.direction>0?i:0,s=t%i,f=1+(t-s)/i;e*=r.direction,r.alternate&&f%2==0&&(e=-e);var c=!1;if(f>a)s=l,c=!0,-1===r.fill&&(s=r.direction>0?0:i);else if(e<0&&(s=i-s),s===u)return!1;u=s;for(var h=0;h<o;h++)n[h](s);return c}):null}function ut(t,e){for(var n=e.querySelectorAll("svg"),r=0;r<n.length;r++)if(n[r].id===t.root&&!n[r].svgatorAnimation)return n[r].svgatorAnimation=!0,n[r];return null}function at(t){var e=function(t){return t.shadowRoot};return document?Array.from(t.querySelectorAll(":not("+["a","area","audio","br","canvas","circle","datalist","embed","g","head","hr","iframe","img","input","link","object","path","polygon","rect","script","source","style","svg","title","track","video"].join()+")")).filter(e).map(e):[]}function lt(t){var e=arguments.length>1&&void 0!==arguments[1]?arguments[1]:document,n=arguments.length>2&&void 0!==arguments[2]?arguments[2]:0,r=ut(t,e);if(r)return r;if(n>=20)return null;for(var i=at(e),o=0;o<i.length;o++){var u=lt(t,i[o],n+1);if(u)return u}return null}function st(t,e){if($=e,!t||!t.root||!Array.isArray(t.animations))return null;var n=lt(t);if(!n)return null;var r=t.animations.map((function(t){return ot(n,t)})).filter((function(t){return!!t}));return r.length?{svg:n,animations:r,animationSettings:t.animationSettings,options:t.options||void 0}:null}function ft(t){var e=arguments.length>1&&void 0!==arguments[1]?arguments[1]:null,n=arguments.length>2&&void 0!==arguments[2]?arguments[2]:Number,r=arguments.length>3&&void 0!==arguments[3]?arguments[3]:"undefined"!=typeof BigInt&&BigInt,i="0x"+(t.replace(/[^0-9a-fA-F]+/g,"")||27);return e&&r&&n.isSafeInteger&&!n.isSafeInteger(+i)?n(r(i))%e+e:+i}function ct(t,e,n){return!t||!n||e>t.length?t:t.substring(0,e)+ct(t.substring(e+1),n,n)}function ht(t){var e=arguments.length>1&&void 0!==arguments[1]?arguments[1]:27;return!t||t%e?t%e:[0,1].includes(e)?e:ht(t/e,e)}function vt(t,e,n){if(t&&t.length){var r=ft(n),i=ht(r)+5,o=ct(t,ht(r,5),i);return o=o.replace(/\x7c$/g,"==").replace(/\x2f$/g,"="),o=function(t,e,n){var r=+("0x"+t.substring(0,4));t=t.substring(4);for(var i=ft(e,r)%r+n%27,o=[],u=0;u<t.length;u+=2)if("|"!==t[u]){var a=+("0x"+t[u]+t[u+1])-i;o.push(a)}else{var l=+("0x"+t.substring(u+1,u+1+4))-i;u+=3,o.push(l)}return String.fromCharCode.apply(String,o)}(o=(o=atob(o)).replace(/[\x41-\x5A]/g,""),e,r),o=JSON.parse(o)}}var dt=[{key:"alternate",def:!1},{key:"fill",def:1},{key:"iterations",def:0},{key:"direction",def:1},{key:"speed",def:1},{key:"fps",def:100}],yt=function(){function t(e,n){var i=this,o=arguments.length>2&&void 0!==arguments[2]?arguments[2]:null;r(this,t),this._id=0,this._running=!1,this._rollingBack=!1,this._animations=e,this._settings=n,(!o||o<"2022-05-02")&&delete this._settings.speed,dt.forEach((function(t){i._settings[t.key]=i._settings[t.key]||t.def})),this.duration=n.duration,this.offset=n.offset||0,this.rollbackStartOffset=0}return o(t,[{key:"alternate",get:function(){return this._settings.alternate}},{key:"fill",get:function(){return this._settings.fill}},{key:"iterations",get:function(){return this._settings.iterations}},{key:"direction",get:function(){return this._settings.direction}},{key:"speed",get:function(){return this._settings.speed}},{key:"fps",get:function(){return this._settings.fps}},{key:"maxFiniteDuration",get:function(){return this.iterations>0?this.iterations*this.duration:this.duration}},{key:"_apply",value:function(t){for(var e=arguments.length>1&&void 0!==arguments[1]?arguments[1]:{},n=this._animations,r=n.length,i=0,o=0;o<r;o++)e[o]?i++:(e[o]=n[o](t,1),e[o]&&i++);return i}},{key:"_rollback",value:function(t){var e=this,n=1/0,r=null;this.rollbackStartOffset=t,this._rollingBack=!0,this._running=!0;this._id=window.requestAnimationFrame((function i(o){if(e._rollingBack){null==r&&(r=o);var u=Math.round(t-(o-r)*e.speed);if(u>e.duration&&n!==1/0){var a=!!e.alternate&&u/e.duration%2>1,l=u%e.duration;u=(l+=a?e.duration:0)||e.duration}var s=(e.fps?1e3/e.fps:0)*e.speed,f=Math.max(0,u);f<=n-s&&(e.offset=f,n=f,e._apply(f));var c=e.iterations>0&&-1===e.fill&&u>=e.maxFiniteDuration;(u<=0||e.offset<u||c)&&e.stop(),e._id=window.requestAnimationFrame(i)}}))}},{key:"_start",value:function(){var t=this,e=arguments.length>0&&void 0!==arguments[0]?arguments[0]:0,n=-1/0,r=null,i={};this._running=!0;var o=function o(u){null==r&&(r=u);var a=Math.round((u-r)*t.speed+e),l=(t.fps?1e3/t.fps:0)*t.speed;if(a>=n+l&&!t._rollingBack&&(t.offset=a,n=a,t._apply(a,i)===t._animations.length))return void t.pause(!0);t._id=window.requestAnimationFrame(o)};this._id=window.requestAnimationFrame(o)}},{key:"_pause",value:function(){this._id&&window.cancelAnimationFrame(this._id),this._running=!1}},{key:"play",value:function(){if(!this._running)return this._rollingBack?this._rollback(this.offset):this._start(this.offset)}},{key:"stop",value:function(){this._pause(),this.offset=0,this.rollbackStartOffset=0,this._rollingBack=!1,this._apply(0)}},{key:"reachedToEnd",value:function(){return this.iterations>0&&this.offset>=this.iterations*this.duration}},{key:"restart",value:function(){var t=arguments.length>0&&void 0!==arguments[0]&&arguments[0];this.stop(t),this.play(t)}},{key:"pause",value:function(){this._pause()}},{key:"reverse",value:function(){this.direction=-this.direction}}],[{key:"build",value:function(t,e){delete t.animationSettings,t.options=vt(t.options,t.root,"91c80d77"),t.animations.map((function(e){e.settings=vt(e.s,t.root,"91c80d77"),delete e.s,t.animationSettings||(t.animationSettings=e.settings)}));var n=t.version;if(!(t=st(t,e)))return null;var r=t.options||{},i=new this(t.animations,t.animationSettings,n);return{el:t.svg,options:r,player:i}}},{key:"push",value:function(t){return this.build(t)}},{key:"init",value:function(){var t=this,e=window.__SVGATOR_PLAYER__&&window.__SVGATOR_PLAYER__["91c80d77"];Array.isArray(e)&&e.splice(0).forEach((function(e){return t.build(e)}))}}]),t}();!function(){for(var t=0,e=["ms","moz","webkit","o"],n=0;n<e.length&&!window.requestAnimationFrame;++n)window.requestAnimationFrame=window[e[n]+"RequestAnimationFrame"],window.cancelAnimationFrame=window[e[n]+"CancelAnimationFrame"]||window[e[n]+"CancelRequestAnimationFrame"];window.requestAnimationFrame||(window.requestAnimationFrame=function(e){var n=Date.now(),r=Math.max(0,16-(n-t)),i=window.setTimeout((function(){e(n+r)}),r);return t=n+r,i},window.cancelAnimationFrame=window.clearTimeout)}();var gt=function(){function t(e,n,i){r(this,t);var o=function(t){var e,n,r,i=t&&1===(null===(e=t.ownerDocument)||void 0===e||null===(n=e.childNodes)||void 0===n?void 0:n.length)&&window.parent!==window,o={el:t,window:window};if(!i)return o;try{r=window.parent.document}catch(t){return o}return o.window=window.parent,o.el=Array.from(r.querySelectorAll("iframe,object")).filter((function(t){return t.contentWindow===window}))[0]||o.el,o}(e);n=Math.max(1,n||1),n=Math.min(n,100),this.el=o.el,this._handlers=[],this.onThresholdChange=i&&i.call?i:function(){},this.thresholdPercent=n||1,this.currentVisibility=null,this.visibilityCalculator=function(t,e){var n=arguments.length>2&&void 0!==arguments[2]?arguments[2]:n,r=!1,i=null,o=function(){for(var o=0,u=n.innerHeight,a=0,l=n.innerWidth,s=t.parentNode;s instanceof Element;){var f=n.getComputedStyle(s);if("visible"!==f.overflowY||"visible"!==f.overflowX){var c=s.getBoundingClientRect();"visible"!==f.overflowY&&(o=Math.max(o,c.top),u=Math.min(u,c.bottom)),"visible"!==f.overflowX&&(a=Math.max(a,c.left),l=Math.min(l,c.right))}if(s===s.parentNode)break;s=s.parentNode}r=!1;var h=t.getBoundingClientRect(),v=Math.min(h.height,Math.max(0,o-h.top)),d=Math.min(h.height,Math.max(0,h.bottom-u)),y=Math.min(h.width,Math.max(0,a-h.left)),g=Math.min(h.width,Math.max(0,h.right-l)),p=(h.height-v-d)/h.height,m=(h.width-y-g)/h.width,b=Math.round(p*m*100);null!==i&&i===b||(i=b,e(b))};return function(t){r&&clearTimeout(r),r=setTimeout((function(){return o()}),100)}}(this.el,this.onVisibilityUpdate.bind(this),o.window),this.bindScrollWatchers(),this.visibilityCalculator()}return o(t,[{key:"bindScrollWatchers",value:function(){for(var t=this.el.parentNode;t&&(this._handlers.push({element:t,event:"scroll",handler:this.visibilityCalculator}),t.addEventListener("scroll",this.visibilityCalculator),t!==t.parentNode&&t!==document);)t=t.parentNode}},{key:"onVisibilityUpdate",value:function(t){var e=this.currentVisibility>=this.thresholdPercent,n=t>=this.thresholdPercent;if(null===this.currentVisibility||e!==n)return this.currentVisibility=t,void this.onThresholdChange(n);this.currentVisibility=t}},{key:"destruct",value:function(){this._handlers.forEach((function(t){t.element.removeEventListener(t.event,t.handler)}))}}]),t}();function pt(t){return p(t)+""}function mt(t){var e=arguments.length>1&&void 0!==arguments[1]?arguments[1]:" ";return t&&t.length?t.map(pt).join(e):""}function bt(t){return pt(t.x)+","+pt(t.y)}function wt(t){if(!t)return"transparent";if(null==t.a||t.a>=1){var e=function(t){return 1===(t=parseInt(t).toString(16)).length?"0"+t:t},n=function(t){return t.charAt(0)===t.charAt(1)},r=e(t.r),i=e(t.g),o=e(t.b);return n(r)&&n(i)&&n(o)&&(r=r.charAt(0),i=i.charAt(0),o=o.charAt(0)),"#"+r+i+o}return"rgba("+t.r+","+t.g+","+t.b+","+t.a+")"}function kt(t){return t?"url(#"+t+")":"none"}var _t={f:null,i:V,u:function(t,e){return function(n){var r=e(n);t.setAttribute("rx",pt(r.x)),t.setAttribute("ry",pt(r.y))}}},At={f:null,i:function(t,e,n){return 0===t?e:1===t?n:{width:C(t,e.width,n.width),height:C(t,e.height,n.height)}},u:function(t,e){return function(n){var r=e(n);t.setAttribute("width",pt(r.width)),t.setAttribute("height",pt(r.height))}}};Object.freeze({M:2,L:2,Z:0,H:1,V:1,C:6,Q:4,T:2,S:4,A:7});var xt={},Ot=null;function St(t){var e=function(){if(Ot)return Ot;if("object"!==("undefined"==typeof document?"undefined":n(document))||!document.createElementNS)return{};var t=document.createElementNS("http://www.w3.org/2000/svg","svg");return t&&t.style?(t.style.position="absolute",t.style.opacity="0.01",t.style.zIndex="-9999",t.style.left="-9999px",t.style.width="1px",t.style.height="1px",Ot={svg:t}):{}}().svg;if(!e)return function(t){return null};var r=document.createElementNS(e.namespaceURI,"path");r.setAttributeNS(null,"d",t),r.setAttributeNS(null,"fill","none"),r.setAttributeNS(null,"stroke","none"),e.appendChild(r);var i=r.getTotalLength();return function(t){var e=r.getPointAtLength(i*t);return{x:e.x,y:e.y}}}function Et(t){return xt[t]?xt[t]:xt[t]=St(t)}function jt(t,e,n,r){if(!t||!r)return!1;var i=["M",t.x,t.y];if(e&&n&&(i.push("C"),i.push(e.x),i.push(e.y),i.push(n.x),i.push(n.y)),e?!n:n){var o=e||n;i.push("Q"),i.push(o.x),i.push(o.y)}return e||n||i.push("L"),i.push(r.x),i.push(r.y),i.join(" ")}function Mt(t,e,n,r){var i=arguments.length>4&&void 0!==arguments[4]?arguments[4]:1,o=jt(t,e,n,r),u=Et(o);try{return u(i)}catch(t){return null}}function Pt(t,e,n){return t+(e-t)*n}function Bt(t,e,n){var r=arguments.length>3&&void 0!==arguments[3]&&arguments[3],i={x:Pt(t.x,e.x,n),y:Pt(t.y,e.y,n)};return r&&(i.a=It(t,e)),i}function It(t,e){return Math.atan2(e.y-t.y,e.x-t.x)}function Tt(t,e,n,r){var i=1-r;return i*i*t+2*i*r*e+r*r*n}function Nt(t,e,n,r){return 2*(1-r)*(e-t)+2*r*(n-e)}function Rt(t,e,n,r){var i=arguments.length>4&&void 0!==arguments[4]&&arguments[4],o=Mt(t,e,null,n,r);return o||(o={x:Tt(t.x,e.x,n.x,r),y:Tt(t.y,e.y,n.y,r)}),i&&(o.a=Ft(t,e,n,r)),o}function Ft(t,e,n,r){return Math.atan2(Nt(t.y,e.y,n.y,r),Nt(t.x,e.x,n.x,r))}function Dt(t,e,n,r,i){var o=i*i;return i*o*(r-t+3*(e-n))+3*o*(t+n-2*e)+3*i*(e-t)+t}function Ct(t,e,n,r,i){var o=1-i;return 3*(o*o*(e-t)+2*o*i*(n-e)+i*i*(r-n))}function qt(t,e,n,r,i){var o=arguments.length>5&&void 0!==arguments[5]&&arguments[5],u=Mt(t,e,n,r,i);return u||(u={x:Dt(t.x,e.x,n.x,r.x,i),y:Dt(t.y,e.y,n.y,r.y,i)}),o&&(u.a=Lt(t,e,n,r,i)),u}function Lt(t,e,n,r,i){return Math.atan2(Ct(t.y,e.y,n.y,r.y,i),Ct(t.x,e.x,n.x,r.x,i))}function Vt(t,e,n){var r=arguments.length>3&&void 0!==arguments[3]&&arguments[3];if(zt(e)){if(Yt(n))return Rt(e,n.start,n,t,r)}else if(zt(n)){if(Ut(e))return Rt(e,e.end,n,t,r)}else{if(Ut(e))return Yt(n)?qt(e,e.end,n.start,n,t,r):Rt(e,e.end,n,t,r);if(Yt(n))return Rt(e,n.start,n,t,r)}return Bt(e,n,t,r)}function Gt(t,e,n){var r=Vt(t,e,n,!0);return r.a=function(t){return arguments.length>1&&void 0!==arguments[1]&&arguments[1]?t+Math.PI:t}(r.a)/b,r}function zt(t){return!t.type||"corner"===t.type}function Yt(t){return null!=t.start&&!zt(t)}function Ut(t){return null!=t.end&&!zt(t)}var Wt=new R;var $t={f:function(t){return t?t.join(" "):""},i:function(t,e,r){if(0===t)return e;if(1===t)return r;var i=e.length;if(i!==r.length)return F(t,e,r);for(var o,u=new Array(i),a=0;a<i;a++){if((o=n(e[a]))!==n(r[a]))return F(t,e,r);if("number"===o)u[a]=D(t,e[a],r[a]);else{if(e[a]!==r[a])return F(t,e,r);u[a]=e[a]}}return u}},Ht={f:null,i:Y,u:function(t,e){return function(n){var r=e(n);t.setAttribute("x1",pt(r[0])),t.setAttribute("y1",pt(r[1])),t.setAttribute("x2",pt(r[2])),t.setAttribute("y2",pt(r[3]))}}},Qt={f:pt,i:D},Xt={f:pt,i:q},Jt={f:function(t){var e=arguments.length>1&&void 0!==arguments[1]?arguments[1]:" ";return t&&t.length>0&&(t=t.map((function(t){return p(t,4)}))),mt(t,e)},i:function(t,e,n){var r,i,o,u=e.length,a=n.length;if(u!==a)if(0===u)e=U(u=a,0);else if(0===a)a=u,n=U(u,0);else{var l=(o=(r=u)*(i=a)/function(t,e){for(var n;e;)n=e,e=t%e,t=n;return t||1}(r,i))<0?-o:o;e=W(e,Math.floor(l/u)),n=W(n,Math.floor(l/a)),u=a=l}for(var s=[],f=0;f<u;f++)s.push(p(C(t,e[f],n[f])));return s}};function Kt(t,e,n){return t.map((function(t){return function(t,e,n){var r=t.v;if(!r||"g"!==r.t||r.s||!r.v||!r.r)return t;var i=n.getElementById(r.r),o=i&&i.querySelectorAll("stop")||[];return r.s=r.v.map((function(t,e){var n=o[e]&&o[e].getAttribute("offset");return{c:t,o:n=p(parseInt(n)/100)}})),delete r.v,t}(t,0,n)}))}var Zt={gt:"gradientTransform",c:{x:"cx",y:"cy"},rd:"r",f:{x:"x1",y:"y1"},to:{x:"x2",y:"y2"}};function te(t,e,r,i,o,u,a,l){return Kt(t,0,l),e=function(t,e,n){for(var r,i,o,u=t.length-1,a={},l=0;l<=u;l++)(r=t[l]).e&&(r.e=e(r.e)),r.v&&"g"===(i=r.v).t&&i.r&&(o=n.getElementById(i.r))&&(a[i.r]={e:o,s:o.querySelectorAll("stop")});return a}(t,i,l),function(i){var o=r(i,t,ee);if(!o)return"none";if("c"===o.t)return wt(o.v);if("g"===o.t){if(!e[o.r])return kt(o.r);var u=e[o.r];return function(t,e){for(var n=t.s,r=n.length;r<e.length;r++){var i=n[n.length-1].cloneNode();i.id=ie(i.id),t.e.appendChild(i),n=t.s=t.e.querySelectorAll("stop")}for(var o=0,u=n.length,a=e.length-1;o<u;o++)n[o].setAttribute("stop-color",wt(e[Math.min(o,a)].c)),n[o].setAttribute("offset",e[Math.min(o,a)].o)}(u,o.s),Object.keys(Zt).forEach((function(t){if(void 0!==o[t])if("object"!==n(Zt[t])){var e,r="gt"===t?(e=o[t],Array.isArray(e)?"matrix("+e.join(" ")+")":""):o[t],i=Zt[t];u.e.setAttribute(i,r)}else Object.keys(Zt[t]).forEach((function(e){if(void 0!==o[t][e]){var n=o[t][e],r=Zt[t][e];u.e.setAttribute(r,n)}}))})),kt(o.r)}return"none"}}function ee(t,n,r){if(0===t)return n;if(1===t)return r;if(n&&r){var i=n.t;if(i===r.t)switch(n.t){case"c":return{t:i,v:z(t,n.v,r.v)};case"g":if(n.r===r.r){var o={t:i,s:ne(t,n.s,r.s),r:n.r};return n.gt&&r.gt&&(o.gt=Y(t,n.gt,r.gt)),n.c?(o.c=L(t,n.c,r.c),o.rd=C(t,n.rd,r.rd)):n.f&&(o.f=L(t,n.f,r.f),o.to=L(t,n.to,r.to)),o}}if("c"===n.t&&"g"===r.t||"c"===r.t&&"g"===n.t){var u="c"===n.t?n:r,a="g"===n.t?e({},n):e({},r),l=a.s.map((function(t){return{c:u.v,o:t.o}}));return a.s="c"===n.t?ne(t,l,a.s):ne(t,a.s,l),a}}return F(t,n,r)}function ne(t,e,n){if(e.length===n.length)return e.map((function(e,r){return re(t,e,n[r])}));for(var r=Math.max(e.length,n.length),i=[],o=0;o<r;o++){var u=re(t,e[Math.min(o,e.length-1)],n[Math.min(o,n.length-1)]);i.push(u)}return i}function re(t,e,n){return{o:q(t,e.o,n.o||0),c:z(t,e.c,n.c||{})}}function ie(t){return t.replace(/-fill-([0-9]+)$/,(function(t,e){return"-fill-"+(+e+1)}))}function oe(t,e,n){return 0===t?e:1===t?n:{blur:V(t,e.blur,n.blur),offset:L(t,e.offset,n.offset),color:z(t,e.color,n.color)}}var ue={blur:V,brightness:C,contrast:C,"drop-shadow":oe,"inner-shadow":oe,grayscale:C,"hue-rotate":D,invert:C,opacity:C,saturate:C,sepia:C};function ae(t,e,n){if(0===t)return e;if(1===t)return n;var r=e.length;if(r!==n.length)return F(t,e,n);for(var i,o=[],u=0;u<r;u++){if(e[u].type!==n[u].type)return e;if(!(i=ue[e[u].type]))return F(t,e,n);o.push({type:e.type,value:i(t,e[u].value,n[u].value)})}return o}var le={blur:function(t){return t?function(e){t.setAttribute("stdDeviation",bt(e))}:null},brightness:function(t,e,n){return(t=fe(n,e))?function(e){e=pt(e),t.map((function(t){return t.setAttribute("slope",e)}))}:null},contrast:function(t,e,n){return(t=fe(n,e))?function(e){var n=pt((1-e)/2);e=pt(e),t.map((function(t){t.setAttribute("slope",e),t.setAttribute("intercept",n)}))}:null},"drop-shadow":function(t,e,n){var r=n.getElementById(e+"-blur");if(!r)return null;var i=n.getElementById(e+"-offset");if(!i)return null;var o=n.getElementById(e+"-flood");return o?function(t){r.setAttribute("stdDeviation",bt(t.blur)),i.setAttribute("dx",pt(t.offset.x)),i.setAttribute("dy",pt(t.offset.y)),o.setAttribute("flood-color",wt(t.color))}:null},"inner-shadow":function(t,e,n){var r=n.getElementById(e+"-blur");if(!r)return null;var i=n.getElementById(e+"-offset");if(!i)return null;var o=n.getElementById(e+"-color-matrix");return o?function(t){r.setAttribute("stdDeviation",bt(t.blur)),i.setAttribute("dx",pt(t.offset.x)),i.setAttribute("dy",pt(t.offset.y));var e=[0,0,0,0,t.color.r/255,0,0,0,0,t.color.g/255,0,0,0,0,t.color.b/255,0,0,0,t.color.a,0];o.setAttribute("values",mt(e))}:null},grayscale:function(t){return t?function(e){t.setAttribute("values",mt(function(t){return[.2126+.7874*(t=1-t),.7152-.7152*t,.0722-.0722*t,0,0,.2126-.2126*t,.7152+.2848*t,.0722-.0722*t,0,0,.2126-.2126*t,.7152-.7152*t,.0722+.9278*t,0,0,0,0,0,1,0]}(e)))}:null},"hue-rotate":function(t){return t?function(e){return t.setAttribute("values",pt(e))}:null},invert:function(t,e,n){return(t=fe(n,e))?function(e){e=pt(e)+" "+pt(1-e),t.map((function(t){return t.setAttribute("tableValues",e)}))}:null},opacity:function(t,e,n){return(t=n.getElementById(e+"-A"))?function(e){return t.setAttribute("tableValues","0 "+pt(e))}:null},saturate:function(t){return t?function(e){return t.setAttribute("values",pt(e))}:null},sepia:function(t){return t?function(e){return t.setAttribute("values",mt(function(t){return[.393+.607*(t=1-t),.769-.769*t,.189-.189*t,0,0,.349-.349*t,.686+.314*t,.168-.168*t,0,0,.272-.272*t,.534-.534*t,.131+.869*t,0,0,0,0,0,1,0]}(e)))}:null}};var se=["R","G","B"];function fe(t,e){var n=se.map((function(n){return t.getElementById(e+"-"+n)||null}));return-1!==n.indexOf(null)?null:n}var ce={fill:te,"fill-opacity":Xt,stroke:te,"stroke-opacity":Xt,"stroke-width":Qt,"stroke-dashoffset":{f:pt,i:D},"stroke-dasharray":Jt,opacity:Xt,transform:function(t,e,r,i){if(!(t=function(t,e){if(!t||"object"!==n(t))return null;var r=!1;for(var i in t)t.hasOwnProperty(i)&&(t[i]&&t[i].length?(t[i].forEach((function(t){t.e&&(t.e=e(t.e))})),r=!0):delete t[i]);return r?t:null}(t,i)))return null;var o=function(n,i,o){var u=arguments.length>3&&void 0!==arguments[3]?arguments[3]:null;return t[n]?r(i,t[n],o):e&&e[n]?e[n]:u};return e&&e.a&&t.o?function(e){var n=r(e,t.o,Gt);return Wt.recomposeSelf(n,o("r",e,D,0)+n.a,o("k",e,L),o("s",e,L),o("t",e,L)).toString()}:function(t){return Wt.recomposeSelf(o("o",t,Vt,null),o("r",t,D,0),o("k",t,L),o("s",t,L),o("t",t,L)).toString()}},"#filter":function(t,e,n,r,i,o,u,a){if(!e.items||!t||!t.length)return null;var l=function(t,e){var n=(t=t.map((function(t){return t&&le[t[0]]?(e.getElementById(t[1]),le[t[0]](e.getElementById(t[1]),t[1],e)):null}))).length;return function(e){for(var r=0;r<n;r++)t[r]&&t[r](e[r].value)}}(e.items,a);return l?(t=function(t,e){return t.map((function(t){return t.e=e(t.e),t}))}(t,r),function(e){l(n(e,t,ae))}):null},"#line":Ht,points:{f:mt,i:Y},d:$t,r:Qt,"#size":At,"#radius":_t,_:function(t,e){if(Array.isArray(t))for(var n=0;n<t.length;n++)this[t[n]]=e;else this[t]=e}},he={currentTime:"offset",duration:"duration",hasEnded:function(){return this.reachedToEnd()},isAlternate:"alternate",isPlaying:"_running",isRollingBack:"_rollingBack",state:function(t,e){return e.isPlaying?e.isRollingBack?"rollback":"playing":e.hasEnded?"ended":"paused"},totalTime:"maxFiniteDuration",iterations:"iterations",direction:"direction",fill:"fill",isReversed:function(t,e){return-1===e.direction},isBackwards:function(t,e){return-1===e.fill},isInfinite:function(t,e){return 0===e.iterations},speed:"speed",fps:"fps"},ve={destruct:"destruct",pause:"pause",play:function(t,e){return de(t,e.hasEnded?"restart":"play",e)},restart:"restart",reverse:function(t,e){return de(t,"reverse",e,[!0])},seek:"seek",seekBy:"seekBy",seekTo:"seekTo",stop:"stop",toggle:"toggle",togglePlay:"toggle",set:"set"};function de(t,e,n){var r=arguments.length>3&&void 0!==arguments[3]?arguments[3]:[];return function(){var i,o=Array.prototype.slice.call(arguments);return o.unshift.apply(o,v(r)),(i=t[e]).call.apply(i,[t].concat(v(o))),n}}var ye=function t(e){r(this,t);var n={},i=["on","off"],o={get:function(t,e,r){return he[e]?"function"==typeof he[e]?he[e].call(t,t,r):t[he[e]]:ve[e]?"function"==typeof ve[e]?ve[e].call(t,t,r):de(t,ve[e],r):-1!==i.indexOf(e)?n[e]:"ready"===e?function(t){return t&&t.call(r,r),r}:void 0},set:function(t,e,r){return-1!==i.indexOf(e)&&(n[e]=r)},ownKeys:function(t){return Object.keys(he)},has:function(t,e){return void 0!==he[e]}};if("function"==typeof Proxy)return new Proxy(e,o);var u=Object.keys(he).concat(Object.keys(ve)).concat(i),a={};return u.forEach((function(t){var n={enumerable:!1,configurable:!1,get:function(){return o.get(e,t,a)}};-1!==i.indexOf(t)&&(n.set=function(n){return o.set(e,t,n)}),Object.defineProperty(a,t,n)})),a};function ge(t){t||(t=this);var e={};this.on=function(t,n){var r=arguments.length>2&&void 0!==arguments[2]&&arguments[2];return"function"==typeof n&&(t.split(/[, ]+/g).forEach((function(t){return e[t]=e[t]||[],r?e[t].unshift(n):e[t].push(n)})),!0)},this.off=function(t,n){for(var r in e)if(e.hasOwnProperty(r)&&r.substr(0,t.length)===t)if(n)for(var i=0;i<e[r].length;i++)e[r][i]===n&&(e[r][i]=null);else e[r]=null},this.trigger=function(){var n,r=Array.prototype.slice.call(arguments),i=r[0],o=r.slice(1);t:for(var u in e)if(e.hasOwnProperty(u)&&e[u]&&(u===i||u.substr(0,i.length+1)===i+"."))for(var a=0;a<(e[u]||[]).length;a++)if(e[u][a]&&!1===(n=e[u][a].apply(t,o)))break t;return n}}var pe=!0,me=["iterations","speed","fps","direction","fill","alternate"],be=function(t){!function(t,e){if("function"!=typeof e&&null!==e)throw new TypeError("Super expression must either be null or a function");t.prototype=Object.create(e&&e.prototype,{constructor:{value:t,writable:!0,configurable:!0}}),e&&l(t,e)}(u,t);var e,n,i=(e=u,n=s(),function(){var t,r=a(e);if(n){var i=a(this).constructor;t=Reflect.construct(r,arguments,i)}else t=r.apply(this,arguments);return c(this,t)});function u(t,e){var n,o=arguments.length>2&&void 0!==arguments[2]?arguments[2]:null;return r(this,u),(n=i.call(this,t,e,o))._handlers=[],n}return o(u,[{key:"_adjustOffset",value:function(){var t=arguments.length>0&&void 0!==arguments[0]&&arguments[0],e=this.alternate?2*this.duration:this.duration;if(t){if(!this._rollingBack&&0===this.offset)return void(this.offset=e);this._rollingBack&&(this.offset,this.maxFiniteDuration)}!this._rollingBack||this.rollbackStartOffset<=this.duration?0!==this.iterations&&(this.offset=Math.min(this.offset,this.maxFiniteDuration)):(this.offset=this.rollbackStartOffset-(this.rollbackStartOffset-this.offset)%e,this.rollbackStartOffset=0)}},{key:"reverse",value:function(){var t=arguments.length>0&&void 0!==arguments[0]&&arguments[0];if(!this._running)return this._adjustOffset(t),this._rollingBack=!this._rollingBack,t&&this.play(!1),void this.trigger("reverse",this.offset);this.pause(!1,!1),this._adjustOffset(),this._rollingBack=!this._rollingBack,this.play(!1),this.trigger("reverse",this.offset)}},{key:"play",value:function(){var t=arguments.length>0&&void 0!==arguments[0]?arguments[0]:pe,e=h(a(u.prototype),"play",this).call(this);return t===pe&&this.trigger("play",this.offset),e}},{key:"pause",value:function(){var t=arguments.length>0&&void 0!==arguments[0]&&arguments[0],e=arguments.length>1&&void 0!==arguments[1]?arguments[1]:pe,n=h(a(u.prototype),"pause",this).call(this);return e===pe&&this.trigger(t?"end":"pause",this.offset),n}},{key:"restart",value:function(){var t=h(a(u.prototype),"restart",this).call(this,!1);return this.trigger("restart",this.offset),t}},{key:"stop",value:function(){var t=arguments.length>0&&void 0!==arguments[0]?arguments[0]:pe,e=h(a(u.prototype),"stop",this).call(this);return t===pe&&this.trigger("stop",this.offset),e}},{key:"_apply",value:function(t){var e=this,n=arguments.length>2&&void 0!==arguments[2]?arguments[2]:pe,r=h(a(u.prototype),"_apply",this).call(this,t);if(n===pe){var i=function(){return e.trigger("keyframe",t)};window.requestAnimationFrame(i)}return r}},{key:"seekTo",value:function(t){var e,n,r,i=this._running;i&&this.pause(!1,!1),this.offset=this.iterations>0?(e=t,n=0,r=this.maxFiniteDuration,e<n?n:e>r?r:e):Math.max(t,0),this._apply(this.offset),i&&this.play(!1)}},{key:"seek",value:function(t){return this.seekTo(Math.round(t/100*this.maxFiniteDuration))}},{key:"seekBy",value:function(t){return this.seekTo(this.offset+t)}},{key:"toggle",value:function(){return this._running?this.pause():this.reachedToEnd()?this.restart():this.play()}},{key:"set",value:function(t,e){if(me.includes(t)){var n=this._running;n&&this.pause(!1,!1),this._settings[t]=e,n?this.play(!1):this._apply(this.offset,{},!1)}}},{key:"destruct",value:function(){var t=this;this.stop(),this._handlers.forEach((function(t){t.element?t.element.removeEventListener(t.event,t.handler):t.callback&&t.callback.call&&t.callback.call()}));var e=function(){},n=Object.getOwnPropertyNames(Object.getPrototypeOf(this));n.push.apply(n,v(Object.getOwnPropertyNames(this))),n.forEach((function(n){"function"==typeof t[n]?t[n]=e:delete t[n]}))}}],[{key:"build",value:function(t){var e=h(a(u),"build",this).call(this,t,ce);if(!e)return null;var n=e.el,r=e.options,i=e.player,o=new ye(i),l=new ge(o);o.on=l.on,o.off=l.off,i.trigger=l.trigger;var s=n.svgatorPlayer&&n.svgatorPlayer.ready&&n.svgatorPlayer.ready.call&&n.svgatorPlayer.ready.call();n.svgatorPlayer=o,function(t){var e,n,r=t&&1===(null===(e=t.ownerDocument)||void 0===e||null===(n=e.childNodes)||void 0===n?void 0:n.length)&&window.parent!==window,i=null==t?void 0:t.firstElementChild;if(!r||!i||"a"!==i.tagName||i.getAttribute("target"))return;i.setAttributeNS(null,"target","_parent")}(n),function(t,e,n){if("click"===n.start){var r=function(){switch(n.click){case"freeze":return!t._running&&t.reachedToEnd()?t.restart():t.toggle();case"restart":return t.offset>0?t.restart():t.play();case"reverse":return t._running?t.reverse():t.reachedToEnd()?1===t.fill?t.reverse(!0):t.restart():t.play();case"none":default:if(t._running)return;return t.reachedToEnd()?t.restart():t.play()}};return t._handlers.push({element:e,event:"click",handler:r}),void e.addEventListener("click",r)}if("hover"===n.start){var i=function(){return t.reachedToEnd()?t.restart():t._rollingBack?t.reverse():t.play()};t._handlers.push({element:e,event:"mouseenter",handler:i}),e.addEventListener("mouseenter",i);var o=function(){switch(n.hover){case"freeze":return t.pause();case"reset":return t.stop();case"reverse":if(t.reverse(),t._running)return;return t.play();case"none":default:return}};return t._handlers.push({element:e,event:"mouseleave",handler:o}),void e.addEventListener("mouseleave",o)}if("scroll"===n.start){var u=new gt(e,n.scroll||25,(function(e){e?t.reachedToEnd()?t.restart():t.play():t.pause()}));return void t._handlers.push({callback:function(){return u.destruct()}})}if("programmatic"===n.start)return;t.play()}(i,n,r),function(t,e,n){var r;"function"==typeof Event?r=new Event("ready"):(r=document.createEvent("Event")).initEvent("ready",!0,!0);if(t.dispatchEvent(r),!n||!n.length)return;n.forEach((function(t){return e.ready(t)}))}(n,n.svgatorPlayer,s)}}]),u}(yt);return be.init(),be}));
(function(s,i,o,w,d,a,b){(a=Array.from(d.querySelectorAll('svg#' + i.root)).filter(n=> !n.svgatorPlayer)[0]||{}).svgatorPlayer={ready:(function(a){b=[];return function(c){return c?(b.push(c),a.svgatorPlayer):b}})(a)};w[o]=w[o]||{};w[o][s]=w[o][s]||[];w[o][s].push(i);})('91c80d77',{"root":"eTL7IWbxdZ31","version":"2022-05-04","animations":[{"elements":{"eTL7IWbxdZ314":{"transform":{"data":{"o":{"x":245.014218,"y":492.211705,"type":"corner"},"t":{"x":-242.174912,"y":-480.681746}},"keys":{"s":[{"t":0,"v":{"x":1,"y":1},"e":[0.42,0,1,1]},{"t":1000,"v":{"x":1.054077,"y":1.054077},"e":[0,0,0.58,1]},{"t":2000,"v":{"x":1,"y":1}}]}}}},"s":"MDIA1ZGM3NmViMOGMxYmVhZGMwQYjViYmJhNmUV4NlI3ZTdjN2JM3Yzc4NmViMRGI1YmViMWFmMYzBiNWJiYmEU2ZTg2N2RVNzKg2ZWI1YzBiMCWJlYWRjMGI1JYmJiYWJmNmVKWODY3Yzc4UjXZlYjJiNWI4YYjg2ZUw4Nkw3YZDc4NmVhZElYiOGMwYjFiZWQJhYWRQYzBiMHTZlODZiMmFkVYjhiZmIxNzgM2ZWJmYmNiMWEIxYjA2ZTg2NW2Q3OFI2ZWIyLYmNiZkY2ZTgR2N2RHN2M3Y2RM5"}],"options":"MDMAxMDgyMjk3YGTdiNjg3OTdiGMjk0MTI5NzNAYNzY2ODZiMjHk4NA|"},'__SVGATOR_PLAYER__',window,document)
]]></script>
</svg>
