<svg width="451" height="178" viewBox="0 0 451 178" fill="none" xmlns="http://www.w3.org/2000/svg">
<path d="M276 0H171V13H276V0Z" fill="url(#paint0_linear_132_303)"/>
<path d="M159.776 79.0274L228.709 10.3278L218.933 3.00002L150 71.6997L159.776 79.0274Z" fill="url(#paint1_linear_132_303)"/>
<path d="M228.776 2.99994L297.709 71.6996L287.933 79.0274L219 10.3277L228.776 2.99994Z" fill="url(#paint2_linear_132_303)"/>
<path d="M425 98H320V111H425V98Z" fill="url(#paint3_linear_132_303)"/>
<path d="M308.776 177.028L377.709 108.328L367.933 101L299 169.7L308.776 177.028Z" fill="url(#paint4_linear_132_303)"/>
<path d="M377.776 101L446.709 169.7L436.933 177.028L368 108.328L377.776 101Z" fill="url(#paint5_linear_132_303)"/>
<path d="M126 98H20.9998V111H126V98Z" fill="url(#paint6_linear_132_303)"/>
<path d="M9.77655 177.028L78.7095 108.328L68.933 101L0.000123441 169.7L9.77655 177.028Z" fill="url(#paint7_linear_132_303)"/>
<path d="M78.7761 101L147.709 169.7L137.933 177.028L68.9996 108.328L78.7761 101Z" fill="url(#paint8_linear_132_303)"/>
<path fill-rule="evenodd" clip-rule="evenodd" d="M162.298 41C153.499 41 148 47.2133 148 54.8755C148 62.5402 153.499 68.7509 162.298 68.7509C171.095 68.7509 176.594 62.5377 176.594 54.8755C176.591 47.2107 171.095 41 162.298 41ZM162.298 62.0839C157.727 62.0839 154.868 58.8561 154.868 54.8755C154.868 50.8948 157.725 47.667 162.298 47.667C166.869 47.667 169.726 50.8948 169.726 54.8755C169.723 58.8561 166.867 62.0839 162.298 62.0839Z" fill="#1E72B8"/>
<g clip-path="url(#clip0_132_303)">
<path d="M290.27 61.3656L296.395 55.2297L299.886 58.7289C300.583 59.4267 300.975 60.3728 300.975 61.3594C300.975 62.3459 300.583 63.2921 299.886 63.9898L299.024 64.8523C298.679 65.1987 298.269 65.4735 297.817 65.661C297.366 65.8485 296.882 65.945 296.393 65.945C295.904 65.945 295.42 65.8485 294.969 65.661C294.517 65.4735 294.108 65.1987 293.763 64.8523L290.27 61.3656ZM299.877 42.9773L299.011 42.1148C298.313 41.4175 297.367 41.0257 296.381 41.0257C295.394 41.0257 294.448 41.4175 293.75 42.1148L288.501 47.3758L283.24 42.1148C282.542 41.4175 281.596 41.0257 280.609 41.0257C279.623 41.0257 278.677 41.4175 277.979 42.1148L277.116 42.9773C276.419 43.6751 276.027 44.6213 276.027 45.6078C276.027 46.5943 276.419 47.5405 277.116 48.2383L282.377 53.4992L277.116 58.7601C276.419 59.4579 276.027 60.4041 276.027 61.3906C276.027 62.3771 276.419 63.3233 277.116 64.0211L277.979 64.8836C278.677 65.581 279.623 65.9727 280.609 65.9727C281.596 65.9727 282.542 65.581 283.24 64.8836L299.886 48.2375C300.583 47.5397 300.975 46.5936 300.975 45.607C300.975 44.6205 300.583 43.6743 299.886 42.9766L299.877 42.9773Z" fill="#E10A17"/>
<path d="M290.27 45.6328L296.395 51.7688L299.886 48.2695C300.583 47.5718 300.975 46.6256 300.975 45.6391C300.975 44.6525 300.583 43.7064 299.886 43.0086L299.024 42.1461C298.679 41.7998 298.269 41.525 297.817 41.3374C297.366 41.1499 296.882 41.0534 296.393 41.0534C295.904 41.0534 295.42 41.1499 294.969 41.3374C294.517 41.525 294.108 41.7998 293.763 42.1461L290.27 45.6328ZM299.877 64.0211L299.011 64.8836C298.313 65.581 297.367 65.9727 296.381 65.9727C295.394 65.9727 294.448 65.581 293.75 64.8836L288.501 59.6227L283.24 64.8836C282.542 65.581 281.596 65.9727 280.609 65.9727C279.623 65.9727 278.677 65.581 277.979 64.8836L277.116 64.0211C276.419 63.3233 276.027 62.3772 276.027 61.3906C276.027 60.4041 276.419 59.4579 277.116 58.7602L282.377 53.4992L277.116 48.2383C276.419 47.5405 276.027 46.5944 276.027 45.6078C276.027 44.6213 276.419 43.6751 277.116 42.9774L277.979 42.1149C278.677 41.4175 279.623 41.0257 280.609 41.0257C281.596 41.0257 282.542 41.4175 283.24 42.1149L299.886 58.761C300.583 59.4587 300.975 60.4049 300.975 61.3914C300.975 62.378 300.583 63.3241 299.886 64.0219L299.877 64.0211Z" fill="#E10A17"/>
</g>
<path fill-rule="evenodd" clip-rule="evenodd" d="M15.298 136C6.4989 136 0.999756 142.213 0.999756 149.875C0.999756 157.54 6.4989 163.751 15.298 163.751C24.0946 163.751 29.5937 157.538 29.5937 149.875C29.5912 142.211 24.0946 136 15.298 136ZM15.298 157.084C10.727 157.084 7.86788 153.856 7.86788 149.875C7.86788 145.895 10.7244 142.667 15.298 142.667C19.8691 142.667 22.7256 145.895 22.7256 149.875C22.723 153.856 19.8665 157.084 15.298 157.084Z" fill="#1E72B8"/>
<g clip-path="url(#clip1_132_303)">
<path d="M140.27 159.366L146.395 153.23L149.886 156.729C150.583 157.427 150.975 158.373 150.975 159.359C150.975 160.346 150.583 161.292 149.886 161.99L149.024 162.852C148.679 163.199 148.269 163.473 147.817 163.661C147.366 163.849 146.882 163.945 146.393 163.945C145.904 163.945 145.42 163.849 144.969 163.661C144.517 163.473 144.108 163.199 143.763 162.852L140.27 159.366ZM149.877 140.977L149.011 140.115C148.313 139.417 147.367 139.026 146.381 139.026C145.394 139.026 144.448 139.417 143.75 140.115L138.501 145.376L133.24 140.115C132.542 139.417 131.596 139.026 130.609 139.026C129.623 139.026 128.677 139.417 127.979 140.115L127.116 140.977C126.419 141.675 126.027 142.621 126.027 143.608C126.027 144.594 126.419 145.54 127.116 146.238L132.377 151.499L127.116 156.76C126.419 157.458 126.027 158.404 126.027 159.391C126.027 160.377 126.419 161.323 127.116 162.021L127.979 162.884C128.677 163.581 129.623 163.973 130.609 163.973C131.596 163.973 132.542 163.581 133.24 162.884L149.886 146.237C150.583 145.54 150.975 144.594 150.975 143.607C150.975 142.62 150.583 141.674 149.886 140.977L149.877 140.977Z" fill="#E10A17"/>
<path d="M140.27 143.633L146.395 149.769L149.886 146.27C150.583 145.572 150.975 144.626 150.975 143.639C150.975 142.653 150.583 141.706 149.886 141.009L149.024 140.146C148.679 139.8 148.269 139.525 147.817 139.337C147.366 139.15 146.882 139.053 146.393 139.053C145.904 139.053 145.42 139.15 144.969 139.337C144.517 139.525 144.108 139.8 143.763 140.146L140.27 143.633ZM149.877 162.021L149.011 162.884C148.313 163.581 147.367 163.973 146.381 163.973C145.394 163.973 144.448 163.581 143.75 162.884L138.501 157.623L133.24 162.884C132.542 163.581 131.596 163.973 130.609 163.973C129.623 163.973 128.677 163.581 127.979 162.884L127.116 162.021C126.419 161.323 126.027 160.377 126.027 159.391C126.027 158.404 126.419 157.458 127.116 156.76L132.377 151.499L127.116 146.238C126.419 145.541 126.027 144.594 126.027 143.608C126.027 142.621 126.419 141.675 127.116 140.977L127.979 140.115C128.677 139.417 129.623 139.026 130.609 139.026C131.596 139.026 132.542 139.417 133.24 140.115L149.886 156.761C150.583 157.459 150.975 158.405 150.975 159.391C150.975 160.378 150.583 161.324 149.886 162.022L149.877 162.021Z" fill="#E10A17"/>
</g>
<path fill-rule="evenodd" clip-rule="evenodd" d="M315.298 136C306.499 136 301 142.213 301 149.875C301 157.54 306.499 163.751 315.298 163.751C324.095 163.751 329.594 157.538 329.594 149.875C329.591 142.211 324.095 136 315.298 136ZM315.298 157.084C310.727 157.084 307.868 153.856 307.868 149.875C307.868 145.895 310.725 142.667 315.298 142.667C319.869 142.667 322.726 145.895 322.726 149.875C322.723 153.856 319.867 157.084 315.298 157.084Z" fill="#1E72B8"/>
<g clip-path="url(#clip2_132_303)">
<path d="M440.27 159.366L446.395 153.23L449.886 156.729C450.583 157.427 450.975 158.373 450.975 159.359C450.975 160.346 450.583 161.292 449.886 161.99L449.024 162.852C448.679 163.199 448.269 163.473 447.817 163.661C447.366 163.849 446.882 163.945 446.393 163.945C445.904 163.945 445.42 163.849 444.969 163.661C444.517 163.473 444.108 163.199 443.763 162.852L440.27 159.366ZM449.877 140.977L449.011 140.115C448.313 139.417 447.367 139.026 446.381 139.026C445.394 139.026 444.448 139.417 443.75 140.115L438.501 145.376L433.24 140.115C432.542 139.417 431.596 139.026 430.609 139.026C429.623 139.026 428.677 139.417 427.979 140.115L427.116 140.977C426.419 141.675 426.027 142.621 426.027 143.608C426.027 144.594 426.419 145.54 427.116 146.238L432.377 151.499L427.116 156.76C426.419 157.458 426.027 158.404 426.027 159.391C426.027 160.377 426.419 161.323 427.116 162.021L427.979 162.884C428.677 163.581 429.623 163.973 430.609 163.973C431.596 163.973 432.542 163.581 433.24 162.884L449.886 146.237C450.583 145.54 450.975 144.594 450.975 143.607C450.975 142.62 450.583 141.674 449.886 140.977L449.877 140.977Z" fill="#E10A17"/>
<path d="M440.27 143.633L446.395 149.769L449.886 146.27C450.583 145.572 450.975 144.626 450.975 143.639C450.975 142.653 450.583 141.706 449.886 141.009L449.024 140.146C448.679 139.8 448.269 139.525 447.817 139.337C447.366 139.15 446.882 139.053 446.393 139.053C445.904 139.053 445.42 139.15 444.969 139.337C444.517 139.525 444.108 139.8 443.763 140.146L440.27 143.633ZM449.877 162.021L449.011 162.884C448.313 163.581 447.367 163.973 446.381 163.973C445.394 163.973 444.448 163.581 443.75 162.884L438.501 157.623L433.24 162.884C432.542 163.581 431.596 163.973 430.609 163.973C429.623 163.973 428.677 163.581 427.979 162.884L427.116 162.021C426.419 161.323 426.027 160.377 426.027 159.391C426.027 158.404 426.419 157.458 427.116 156.76L432.377 151.499L427.116 146.238C426.419 145.541 426.027 144.594 426.027 143.608C426.027 142.621 426.419 141.675 427.116 140.977L427.979 140.115C428.677 139.417 429.623 139.026 430.609 139.026C431.596 139.026 432.542 139.417 433.24 140.115L449.886 156.761C450.583 157.459 450.975 158.405 450.975 159.391C450.975 160.378 450.583 161.324 449.886 162.022L449.877 162.021Z" fill="#E10A17"/>
</g>
<defs>
<linearGradient id="paint0_linear_132_303" x1="223.5" y1="0" x2="223.5" y2="13" gradientUnits="userSpaceOnUse">
<stop stop-color="#8B8B8B"/>
<stop offset="1" stop-color="#656565"/>
</linearGradient>
<linearGradient id="paint1_linear_132_303" x1="194.243" y1="44.6776" x2="185.707" y2="36.1131" gradientUnits="userSpaceOnUse">
<stop stop-color="#8B8B8B"/>
<stop offset="1" stop-color="#656565"/>
</linearGradient>
<linearGradient id="paint2_linear_132_303" x1="263.243" y1="37.3498" x2="254.707" y2="45.9143" gradientUnits="userSpaceOnUse">
<stop stop-color="#8B8B8B"/>
<stop offset="1" stop-color="#656565"/>
</linearGradient>
<linearGradient id="paint3_linear_132_303" x1="372.5" y1="98" x2="372.5" y2="111" gradientUnits="userSpaceOnUse">
<stop stop-color="#8B8B8B"/>
<stop offset="1" stop-color="#656565"/>
</linearGradient>
<linearGradient id="paint4_linear_132_303" x1="343.243" y1="142.678" x2="334.707" y2="134.113" gradientUnits="userSpaceOnUse">
<stop stop-color="#8B8B8B"/>
<stop offset="1" stop-color="#656565"/>
</linearGradient>
<linearGradient id="paint5_linear_132_303" x1="412.243" y1="135.35" x2="403.707" y2="143.915" gradientUnits="userSpaceOnUse">
<stop stop-color="#8B8B8B"/>
<stop offset="1" stop-color="#656565"/>
</linearGradient>
<linearGradient id="paint6_linear_132_303" x1="73.4998" y1="98" x2="73.4998" y2="111" gradientUnits="userSpaceOnUse">
<stop stop-color="#8B8B8B"/>
<stop offset="1" stop-color="#656565"/>
</linearGradient>
<linearGradient id="paint7_linear_132_303" x1="44.243" y1="142.678" x2="35.7075" y2="134.113" gradientUnits="userSpaceOnUse">
<stop stop-color="#8B8B8B"/>
<stop offset="1" stop-color="#656565"/>
</linearGradient>
<linearGradient id="paint8_linear_132_303" x1="113.243" y1="135.35" x2="104.707" y2="143.915" gradientUnits="userSpaceOnUse">
<stop stop-color="#8B8B8B"/>
<stop offset="1" stop-color="#656565"/>
</linearGradient>
<clipPath id="clip0_132_303">
<rect width="25" height="25" fill="white" transform="translate(276 41)"/>
</clipPath>
<clipPath id="clip1_132_303">
<rect width="25" height="25" fill="white" transform="translate(126 139)"/>
</clipPath>
<clipPath id="clip2_132_303">
<rect width="25" height="25" fill="white" transform="translate(426 139)"/>
</clipPath>
</defs>
</svg>
