<svg id="e0SMkNjTznI1" xmlns="http://www.w3.org/2000/svg" xmlns:xlink="http://www.w3.org/1999/xlink" viewBox="0 0 300 240" shape-rendering="geometricPrecision" text-rendering="geometricPrecision"><g transform="translate(-137.704391-136.598923)"><path d="M427.93,210.05c-1.08-4.22-4.81-6.95-7.55-10.08-5.08-5.24-10.32-10.31-15.52-15.42-14.26-13.99-28.7-28.27-45.91-38.62-2.51-1.21-5.08-2.51-7.84-3.02-3.85-.77-7.76-.42-11.65-.26-5.9.26-11.81.33-17.71.3-7.87-.02-15.77.15-23.59,1.08-3.13.47-6.38.62-9.4,1.66-1.02.35-2.02.78-2.98,1.3-.23-.08-.47-.16-.71-.23-4.47-1.25-9.2-.65-13.79-.66-6.33.06-12.65-.52-18.95-1.03-5.87-.43-11.75-.75-17.63-.96-5.71-.36-11.72.14-16.51,3.55-8.3,5.89-14.61,14-21.62,21.27-7.94,8.52-16.43,16.52-25.09,24.31-5.79,5.1-3.76,2.84-12.78,9.77-2.65,2.13-5.29,4.35-7.23,7.17-3.02,5.14-1.8,11.29,2.13,15.06.57,1.24,1.34,2.4,2.36,3.38c11.53,12.19,24.58,22.84,36.73,34.39c18.17,16.85,35.84,34.24,52.78,52.32c6.98,7.57,14.01,15.08,21.01,22.62c3.33,3.26,5.98,7.62,10.43,9.42c1.17.63,2.44.89,3.74.94c1.43,1.4,3.18,2.47,5.17,3.07c3.05,1.14,6.91.26,9.79-1.26c2.88-1.95,5.04-4.68,7.47-7.14c3.58-3.69,7.25-7.28,10.99-10.8c11.55-10.87,23.51-21.28,35.4-31.78c11.3-10.12,22.75-20.08,34.45-29.74c9.81-8.33,19.96-16.51,27.76-26.83c3.79-4.82,7.46-10.04,8.95-16.07.25-1.08.38-2.16.41-3.23.49-.21.97-.44,1.44-.73c4.69-2.63,7.13-8.61,5.45-13.75Z" fill="#dbeaff"/></g><g transform="translate(-137.704391-136.598923)"><path d="M315.47,221.29c-2.6-1.02-5.52.01-8.25-.22-11.47-.09-22.95.28-34.4-.31-6.12-.28-9.46-.88-13.08-1.4-2.69-.25-5.84-1.6-8.43-.59-4.51,1.74-3.08,8.66,1.73,8.61.4.05,1.06.15,1.89.27.01.02.02.04.03.06c6.2,16.86,9.76,34.52,13.93,51.95c3.36,15.46,7.57,30.72,10.75,46.22.81,3.53,1.58,7.07,2.12,10.65.66,3.84.94,7.85,2.63,11.42c1.82,3.53,6.96,3.64,8.87.1c2.6-6.59,3.38-13.8,4.89-20.7c2.54-12.46,4.4-25.05,6.69-37.56c3.08-17.06,8.16-33.65,12.01-50.52.66-3.17,1.23-6.37,1.61-9.59.51-3.04.37-7.13-2.99-8.39Zm-28.75,17.55c.26-.1.52-.21.78-.34-.13,1.15-.26,2.3-.38,3.45-.13-1.04-.26-2.08-.4-3.11Zm14.36-7.9c-.33.73-.62,1.46-.93,2.2.05-1.01.08-2.04.03-3.06.45,0,.89-.01,1.34-.01-.16.29-.31.58-.44.87Z" fill="#dbf7ff"/><path d="M424.24,209.34c-2.29-6.46-8.53-10.25-13.7-14.26-11.54-8.32-20.32-14.74-31.46-25.81-4.79-5.06-8.76-10.11-12.02-14.21.06-.39.06-.79-.04-1.19-.35-3.37-3.92-4.59-6.44-3.4-2.41.08-4.62,1.81-4.65,4.85.07.82.27,1.6.54,2.35-4.17,10.03-10.52,23.79-16.49,34.85-2.49,4.73-5.16,9.37-7.97,13.92-1.72,3.5-6.24,7.15-3.94,11.3c1.82,3.1,5.72,2.55,8.75,2.14c5.05-.58,4.92-.66,8.29-1c11.84-.58,23.71-.09,35.54-1.02c10.18-.69,20.38-.21,30.57-.59c3.26-.24,6.74.31,9.86-.78c2.83-1,4.02-4.41,3.16-7.15Zm-60.87-.37c.11.18.24.35.37.51-.49.01-.97.02-1.46.03.37-.17.73-.35,1.09-.54Z" fill="#dbf7ff"/><path d="M242.6,208.37c-1.54-3.68-3.16-7.33-4.79-10.98-3.76-8.58-7.92-16.99-12.58-25.12-.21-.34-.42-.69-.63-1.04-.67-2.1-1.31-4.28-1.9-6.59-.74-3.38-2.15-6.4-4.12-8.05.01-.14.03-.28.02-.43.09-3.89-4.98-6.01-7.68-3.18-1.29,1.51-2.58,3.03-3.87,4.55-1.55.76-3.22,2.02-5.03,3.91-5.65,5.25-11.06,10.77-16.09,16.62-1.96,2.25-3.87,4.55-5.8,6.84-2.11,1.94-4.23,3.87-6.37,5.78-4.64,4.18-9.47,8.15-14.15,12.29-2.15,1.98-4.65,3.66-6.35,6.08-2.52,4.54,1.36,8.35,6.11,7.43c15.65-.93,31.39-1.99,47.01-.05c1.11.12,2.22.24,3.33.35.69.27,1.41.46,2.19.5.4,0,.79-.05,1.16-.15c5.17.53,10.35.99,15.54,1.11c2.61.03,5.24.09,7.84-.19c2.17-.21,4.59-.72,5.94-2.57c1.69-2.02,1.33-4.9.22-7.11Zm-46.83-3.01c.02-.12.02-.24.03-.36.55.55,1.1,1.1,1.65,1.64-.65-.04-1.3-.08-1.95-.11.14-.38.24-.76.27-1.17Z" fill="#dbe1ff"/><path d="M313.96,205.56c-1.3-2.31-2.57-4.63-3.8-6.97-4.08-7.66-7.58-15.61-11.7-23.25-1.74-3.35-3.6-6.64-5.34-9.99.11-.25.23-.5.34-.75c1.37-2.49.36-4.79-1.41-5.96.08-.48.1-.96.01-1.44-.37-3.51-4.21-4.68-6.73-3.24-2.74-.09-5.52,2.42-4.62,5.68.23.6.48,1.19.72,1.78-4.71,11.6-12.03,26.47-17.95,39.56-1.53,3.31-3.06,6.62-4.64,9.9-.74,1.42-1.51,2.97-.99,4.6.71,2.79,4.15,4.17,6.61,2.69.87-.47,1.41-1.24,1.84-2.08.28,1.11.95,2.11,2.03,2.7c1.97,1.13,4.35.37,6.51.44c6.09-.23,12.18-.32,18.26-.44c4.28-.12,8.57-.13,12.83-.63c3.54-.39,7.98-1,9.47-4.74c1.27-2.68-.02-5.55-1.44-7.86Z" fill="#dbe1ff"/><path d="M277.35,329.92c-2.12-6.95-4.08-13.94-5.9-20.97-3.17-12.2-5.53-24.59-7.99-36.95-3.18-17.61-9.53-34.39-13.78-51.73-.55-1.89-.99-4.12-2.85-5.15-2.71-1.65-6.07.21-6.69,2.98-12.8.45-25.5-1.68-38.27-2.31-10.53-1.09-21.09-.37-31.65-.46-3.92.11-8.17-1.11-11.87.5-.74.41-1.29,1.01-1.7,1.69-1.14-.25-2.31-.16-3.38.48-2.1,1.18-2.88,4.09-1.61,6.16c1.42,2.38,3.85,4,5.77,5.96c3.16,2.96,6.4,5.83,9.65,8.68c24.25,21.75,49.19,42.99,70.39,67.83c2.74,3.2,5.52,6.37,8.3,9.53c1.12,1.11,1.93,2.71,3.48,3.24.91.47,1.98.49,2.96.2c2.81,3.33,5.62,6.67,8.42,10.01c2.36,2.84,4.66,5.73,7.03,8.55c1.73,1.94,3.46,4.23,6,5.08c2.64.78,5.79-1.15,5.99-3.96.17-3.21-1.58-6.26-2.3-9.36Z" fill="#b3c6e6"/><path d="M354.56,151.1c-.71-2.81-3.89-3.91-6.24-2.88-1.23-2.46-4.18-3.39-7.19-3.1-6.76.28-13.52.6-20.29.63-5.2,0-10.41.16-15.6-.12-3.44-.13-6.9-.97-10.34-.53-3.41.14-6.01,3.87-4.42,7.04c2.19,3.65,2.51,2.84,4.44,6.07c3.99,6.32,7.62,12.88,10.87,19.6c3.84,8.47,5.31,11.5,8.32,20.22c1.59,4.45,2.42,9.18,4.5,13.44c2.05,3.81,7.71,3.39,8.9-.89c2.09-6.58,2.96-8.36,5.08-13.19c6.48-13.65,12.57-27.55,20.18-40.62c1.05-1.71,2.47-3.55,1.79-5.67Zm-36.9,4.56c-.23-.31-.48-.61-.75-.88.45,0,.89-.01,1.34-.01-.2.29-.4.59-.59.89Z" fill="#bde0ff"/><path d="M417.89,215.99c-.59.51-1.17,1.02-1.76,1.53-.96-.73-2.27-1.08-3.84-.7-4.53,1.02-8.44,1.27-13.68,1.72-1.51-.95-3.54-1.06-5.31.49-.03,0-.06.01-.09.01-11.31,1.05-22.64,2.03-33.95,3.13-.64-1.53-2.05-2.74-4.06-2.72-7.21.15-14.42-.08-21.64-.04.03-.28.07-.56.11-.85-.5-4.78-7.49-5.26-8.76-.6-.12.84-.26,1.67-.39,2.5-1.61,1.33-2.03,3.89-.98,5.72-3.03,16.55-7.6,32.75-11.91,49.01-3.85,14.7-7.02,29.58-10.64,44.34-.94,1.12-1.88,2.22-2.81,3.34-1.68,2.05-3.31,4.13-4.92,6.23-.58.69-1.09,1.49-1.09,2.41-.44,2.08,1.02,4.15,2.97,4.84-.2.47-.34.92-.41,1.36-.58.75-1.07,1.55-1.13,2.52-.17.8-.04,1.63.29,2.38-.49.52-.95,1.07-1.18,1.76-.82,1.59-.31,3.68.93,4.92c1.71,1.71,4.67,1.75,6.36,0c.91-1.03,1.84-2.05,2.77-3.06c2.83-3.06,5.78-6,8.72-8.96c12.12-12.45,24.43-24.71,36.41-37.3c14.26-14.72,27.99-29.96,42.23-44.71c10.82-10.97,21.45-22.21,33.21-32.19c5.56-3.7-.4-11.56-5.45-7.08Z" fill="#bde0ff"/><path d="M425.9,222.19c-.23-2.71-2.9-5.19-6.07-3.96-.97-.79-2.32-1.17-3.95-.77-3.67,1.1-3.21.74-8.26,1.27-5.13.46-10.27.81-15.41,1.11-1.49-.88-3.44-.97-5.02.3-.77.04-1.53.09-2.3.13-10.21.51-20.36,1.88-30.56,2.38-.75-1.13-1.99-1.95-3.64-1.93-2.28-.27-4.55-.54-6.83-.76-1.19-.09-2.49-.42-3.58.21-1.41.54-2.24,1.59-2.57,2.78-1.14-.01-2.29-.03-3.43-.05-.02-.75-.21-1.49-.59-2.14-1.88-3.38-7.27-2.7-8.22,1.07-4.09,22.94-10.4,45.38-16.9,67.73-3.41,11.66-6.11,23.51-9.05,35.29-.9,3.64-1.75,7.29-2.69,10.92-.28,1.44-1.1,2.86-.78,4.34.02.33.1.64.2.95-2.03,1.99-1.54,5.63.95,7.03c4.25,2.33,6.56-2.23,9.08-4.82c3.39-3.72,6.68-7.53,10.25-11.08c12.7-13.04,24.79-26.65,36.92-40.23c1.34-1.19,2.68-2.39,4.02-3.58c9.64-8.86,18.63-18.43,28.72-26.8c9.44-7.79,18.98-15.47,27.94-23.82c2.86-2.67,5.56-5.5,8.27-8.32c1.15-1.32,2.69-2.44,3.37-4.08.51-1.1.49-2.21.13-3.17Z" fill="#bde7ff"/></g><g transform="translate(-137.704391-136.598923)"><path d="M252.93,145.89v0c.03,0,.06,0,.1,0h.27.32l.45.01.59.01.7.02.74.03.73.03.75.03.8.03.85.03.9.04.93.04.95.04.98.05l1,.05l1.02.05l1.01.05.97.05.93.04.92.04.92.05.94.05.98.05l1.02.06l1.03.06l1.02.05l1,.05.96.05.93.05.9.04.9.04.98.05l1.1.05l1.26.06l1.39.07l1.4.07l1.36.07l1.32.07l1.26.07l1.21.07l1.18.08l1.22.08l1.3.09l1.35.1l1.32.09l1.24.09l1.17.08l1.1.07l1.03.07.97.06.91.06.85.05.8.05" fill="none"/><path d="M435.85,218.2c.03-.12.06-.25.08-.37.3-.56.47-1.17.46-1.83.04-1.31-.6-2.39-1.54-3.1-.25-1.44-1.37-2.77-2.74-3.87-1.63-1.58-3.26-3.15-4.89-4.72-4.62-4.45-9.13-9.02-13.88-13.34-14.28-12.89-27.44-26.97-41.71-39.88-2.65-2.29-5.26-4.62-7.91-6.91-.74-.66-1.52-1.37-2.44-1.73-.69-.57-1.55-.92-2.49-.91-4.3-.04-8.6-.05-12.9-.01-28.05.44-56.09.04-84.13-.6-14.96-.12-29.95-.72-44.9.07-1.77.04-2.94.96-3.51,2.16-9.44,9.03-18.59,18.35-27.93,27.47-12.42,11.45-24.31,23.45-36.39,35.26-1.68,1.58-3.39,3.12-5.11,4.65-.86.85-2.05,1.5-2.43,2.71-.02.03-.02.06-.04.09-.55.53-.95,1.22-1.16,1.95-1.46,1.18-2.15,3.32-1.03,5.14c4.37,6.04,10.21,10.81,15.36,16.15c11.57,12.82,24.02,24.78,36.28,36.93c20.38,19.82,40.42,39.99,60.9,59.7c8.59,8.62,17.24,17.18,25.74,25.9c1.33,1.4,2.63,2.83,3.89,4.3c0,0,.01,0,.01.01c1.81,1.45,3.43,3,5.03,4.59.3.29.6.58.9.87c2.06-.43,3.71-2.69,5.32-4.13c3.44-3.22,6.97-6.35,10.36-9.62c11.01-10.52,21.46-21.61,32.35-32.25c19.86-18.93,39.75-37.81,59.18-57.18c12.13-12.01,23.91-24.36,35.68-36.72c1.55-1.65,3.16-3.24,4.75-4.84.98-.89,1.78-2.04,1.74-3.42.05-.99-.32-1.85-.9-2.52Zm-89.78-68.68c2.69-.02,5.39-.02,8.08-.01-3.61,7.97-7.76,15.7-11.63,23.54-6.49,13.15-13.08,26.26-19.62,39.39-.3-.53-.58-1.07-.79-1.61-7.48-15.85-15.86-31.24-23.67-46.92-2.3-4.77-4.44-9.62-6.66-14.42c18.1.25,36.2.3,54.29.03Zm-41.31,44.15c3.63,6.99,6.93,14.13,10.46,21.17-16.29,0-32.59-.29-48.87-1.12-2.87-.13-5.74-.25-8.61-.36c7.27-15.42,14.83-30.68,22.96-45.67c1.91-3.57,3.83-7.14,5.75-10.71c5.58,12.48,11.97,24.59,18.31,36.69Zm-32.3-44.52c3.02.07,6.04.11,9.07.16-11.01,20.18-21.7,40.55-31.32,61.43-.42-1.11-.83-2.22-1.26-3.33-4.47-10.88-7.49-18.26-12.69-29.96-4.42-9.64-9.2-19.1-13.82-28.64c16.67-.51,33.36.11,50.02.34ZM166.57,199.83c8.07-8.02,16.29-15.88,24.6-23.64c6.49-6.14,12.55-12.71,19.06-18.82c1.71-1.64,3.4-3.3,5.09-4.96c4.66,9.67,9.52,19.26,14,29.02c5.25,12.01,8.61,19.59,13.15,31.42-24.3-.71-48.62-.89-72.92-1.3-4.95-.1-9.9-.08-14.85-.01c4.03-3.84,7.89-7.83,11.87-11.71Zm89.34,119.99c-13.1-13.49-26.24-26.95-39.46-40.32-3.28-3.19-6.57-6.36-9.87-9.52-3.03-3.36-6.08-6.7-9.23-9.96-10.23-10.47-21.14-20.23-31.93-30.12-3.91-3.51-7.87-6.95-11.85-10.38c30.55.01,61.1.62,91.64,1.4.07,0,.14,0,.21.01.8,5.44,2.19,10.77,3.69,16.06c2.69,10.38,6.19,20.53,9.1,30.84c4.38,16.05,8.25,32.23,12.38,48.34c1.98,8.17,3.59,16.43,5.65,24.58-6.29-7.45-13.22-14.28-20.33-20.93Zm32.73,22.99c-.64,1.84-1.28,3.68-1.96,5.5-1.06-3.31-1.96-6.66-2.82-10.03-2.09-8.31-3.72-16.73-5.76-25.05-2.71-10.79-5.52-21.56-8.18-32.37-3.3-13.81-7.76-27.29-11.72-40.91-1.79-6.47-3.72-13.24-4.71-18.77c16.01.57,32.01,1.52,48.04,1.61c5.95.07,11.9.07,17.85.04-5.08,19.89-10.09,39.8-14.91,59.75-4.7,20.22-8.86,40.65-15.83,60.23Zm94.45-82.05c-12.81,12.76-26.41,24.69-39.41,37.24-9.06,8.39-17.1,17.8-25.99,26.35-7.09,7.02-14.31,13.91-21.44,20.89.59-1.7,1.17-3.4,1.77-5.09c8.37-25.77,12.93-52.58,19.92-78.74c3.22-12.88,6.37-25.78,9.71-38.63c26.27-.25,52.54-1.13,78.81-1.59c4.79-.16,9.58-.18,14.36-.12-13.13,12.68-24.59,27.03-37.73,39.69Zm29.74-47.69c-27.38.47-54.77,1.39-82.15,1.68c7.98-15.98,15.92-31.98,23.92-47.95c2.28-4.65,4.75-9.22,6.79-13.98.01-.03.02-.06.04-.09c10.63,9.26,20.53,19.32,30.65,29.13c9.15,8.96,18.73,17.46,27.81,26.5c1.66,1.61,3.32,3.21,4.98,4.81-4.01-.07-8.02-.19-12.04-.1Z" fill="#bfd9ff"/></g></svg>
