<svg id="eW3kqSQ5vVG1" xmlns="http://www.w3.org/2000/svg" xmlns:xlink="http://www.w3.org/1999/xlink" viewBox="0 0 250 250" shape-rendering="geometricPrecision" text-rendering="geometricPrecision"><g transform="translate(-295.93164-134.767846)"><g><path d="M510.92,274.06c-4.91-15.13-13.7-28.72-23.53-41.24-19.22-24.47-42.77-45.53-69.23-61.9-14.89-9.21-31.07-17.06-48.44-19.23-8.5-1.06-17.41-.68-25.24,2.81-5.36,2.39-10.15,6.42-13.09,11.44-.06.03-.12.05-.17.09-1.83,1.16-2.33,3.41-3.12,5.3-2.96,7.76-4.18,16.08-4.69,24.34-.05,2.22.16,4.41.49,6.6-.01.48.05.96.13,1.44-.02,1.97.19,4.03.74,5.4.07.27.15.55.24.81-.19,14.1,2.22,28.33,6.4,41.83c6.88,22.21,18.26,42.75,30.31,62.64c5.2,8.59,10.58,17.15,17.39,24.53c13.96,15.14,33.83,24.68,54.37,26.11s41.54-5.25,57.47-18.3c8.48-6.95,15.61-15.74,19.71-25.9c5.93-14.77,5.17-31.64.26-46.77Z" fill="#bababa"/></g><g><path d="M435.51,194.5c-6.93-5.77-14.7-10.36-22.45-14.91-12.13-7.33-25.25-13.25-39.35-15.39-2.96-.54-5.96-.98-8.96-1.25-1.08-.29-2.16-.44-3.21-.21-4.32-.17-8.64.1-12.88,1.08-4.9.98-9.56,3.03-13.26,6.44c1.82-1.09,3.6-1.89,5.41-2.49c3.16-.2,6.79-.26,9.17.13c4.4.69,8.71,2.13,12.95,4.04c2.72,1.54,5.41,3.16,7.89,5.06c1.32.77,8.85,7.73,12.18,11.6c4.51,4.75,8.35,10.1,12.96,14.76c8.81,8.69,17.49,17.52,26.7,25.79c8.33,7.11,23.82,18.82,35.22,15.72c3.9-1.17,7.07-4.43,7.81-8.47c2.91-13.93-20.41-33.4-30.18-41.9Zm-8.18,28.15c.01.01.01.01.02.02c5.25,3.94,10.49,8.13,16.19,11.46-1.91-1.01-4-2.26-6.24-3.78-3.42-2.18-6.69-4.8-9.97-7.7Z" fill="#dbdbdb"/></g><g><g><path d="M502.57,250.08c-.73-.81-1.3-1.57-1.93-2.64-.19-.33-.53-1.07-.79-1.64-.32-.5-.65-1-.98-1.5-.16-.16-.34-.34-.52-.53-.08-.02-.41-.26-1.08-.78-1.81-1.44-3.36-3.17-5.02-4.79-3.64-3.56-6.61-7.58-9.98-11.37-2.31-2.59-4.68-5.09-7.01-7.65c1.32,2.89,2.55,5.82,3.59,8.82c1.02.47,1.93,1.29,2.64,2.52c5.37,17.39,7.26,29.36,7.83,46.25-4.67,6.42-9.75,10.3-17.44,11.36-3.36.32-6.72-.23-10.06-.53-3.09-.27-6.19-.53-9.29-.68-3.81-.9-7.76-1.96-12.04-3.11-8.38-2.46-16.77-4.94-24.88-8.22-5.13-2.06-20.97-10.05-29.2-14.85-11.05-6.25-20.92-13.57-29.13-21.97-2.16-3.03-4.18-6.12-6.09-9.26-9.46-9.49-15.48-22.53-19.66-35.42-1.46,6.19-2.45,12.55-3.92,18.71-.54,2.26-1.13,4.42-1.77,6.58.42,12.47,3,25.34,5.55,36.14c3.24,12.15,8.66,23.6,14.23,34.84c6.59,13.31,14.29,26.13,24.27,37.2c9.52,10.13,19.95,19.5,31.73,26.94c7.7,5.33,16.17,9.43,25.31,11.61c13.57,3.98,24.9,2.4,37.97-2.43c9.47-3.45,18.47-8.48,25.67-15.61c5.95-5.57,11.53-11.76,16.13-18.57c2.9-3.71,5.19-7.96,6.87-12.46c1.41-3.27,2.59-6.65,3.45-10.15c4.98-20.86-3.71-39.58-14.45-56.81ZM469.85,352.89c-5.72,2.92-12.36,5.13-20.85,6.98-.18.02-.32.04-.44.06-2.22.26-4.45.44-6.69.47-3.88-.08-3.27-.08-5.64-.43-12.96-2.48-20.43-5.43-31.04-12.7-12.24-7.46-27.47-21.94-35.17-32.07-7.26-9.17-12.74-19.54-18.01-29.94-8.11-15.87-13.4-30.46-18.16-49.25-.83-3.06-1.64-6.37-2.36-9.67c4.38,8.94,9.65,17.42,14.74,25.97c4.25,7.01,8.04,14.29,12.48,21.19.29.65.7,1.28,1.22,1.87c8.99,13.38,18.77,26.37,30.87,37.12c18.49,16.43,38.66,28.56,63.71,31.12c9.52,1.21,19.94,1.76,29.49-.33-4.15,3.86-7.63,6.3-14.15,9.61Z" fill="#adadad"/></g></g><g><g><path d="M509.03,287.2c-.88-9.36-3.5-18.69-8.25-26.84c3.79,14.44,3.93,30.65,1.21,43.86-1.19,5.7-2.1,11.46-4.78,15.75-1.68,2.64-3.84,4.89-6.17,7.49c1.76-1.11,3.51-2.26,5.16-3.52c5.89-4.11,8.41-11.15,10.48-17.73c1.8-6.15,2.86-12.6,2.35-19.01Z" fill="#949494"/></g><path d="M479.26,340.05c-1.65-.26-3.33.15-4.99.14-3.82.13-7.65-.2-11.45-.6-10.53-1.3-28.98-5.17-42.31-10.24-4.3-1.39-14.68-8.24-18.32-11.75-7.86-7.32-14.74-15.62-21.96-23.56-6.17-7.25-10.38-12.99-16.93-21.52-4.84-6.02-10.69-12.98-14.7-18.18-1.78-3.44-3.47-6.93-4.99-10.5-1.77-3.95-2.65-6.38-4.7-11.92-.99-2.65-1.99-5.32-3.33-7.81-.89-1.46-1.85-3.07-3.48-3.73.7,10.25,1.34,20.42,2.56,30.5.16.55.31,1.1.47,1.65c3.05,10.82,7.06,21.39,12.33,31.34c4.52,8.14,10.01,15.71,15.17,23.45c6.55,8.77,13.42,17.36,20.95,25.32c4.05,3.84,8.64,7.06,13.1,10.4c6.13,4.46,12.49,8.57,19.2,12.11c5.16,2.82,10.59,5.2,16.37,6.4c10.59,2.75,20.41,3.04,30.63-1.37c3.87-1.57,7.58-3.48,11.24-5.49c2.52-1.38,5.08-2.84,6.98-5.03.96-1.16,1.99-2.38,2.32-3.87.71-2.75-1.37-5.53-4.16-5.74Z" fill="#828282"/></g></g></svg>
