<svg id="ewD4zjmlgRE1" xmlns="http://www.w3.org/2000/svg" xmlns:xlink="http://www.w3.org/1999/xlink" viewBox="0 0 250 250" shape-rendering="geometricPrecision" text-rendering="geometricPrecision"><g transform="translate(-204.406288-131.560066)"><path d="M433.49,286.52c-.78-2.25-1.66-4.46-2.6-6.65-.42-.99-.79-2.1-1.7-2.73-3.41-6.67-6.26-13.62-10.06-20.1-3.93-7.03-8.81-13.53-14.42-19.3-6.34-5.86-13.67-11.02-21.04-15.5-3.25-1.83-6.56-3.54-9.81-5.37-.89-2.26-1.83-4.5-2.85-6.7-4.07-8.28-9.98-15.77-17.53-21.13-3.67-2.71-7.64-5-11.8-6.89-4.29-8.86-8.26-17.89-13.72-26.1-3.31-4.78-7.23-9.36-12.51-12.02-8.35-4.24-18.01-5.08-27.25-5.13-7.95.28-15.99,1.35-23.51,4.02-5.89,1.9-11.23,5.18-15.29,9.9-5,5.74-7.95,12.89-10.91,19.81-7.64,18.14-9.21,38.03-9.98,57.49-.5,12.55-1.19,25.1-1.44,37.67-.14,5.8,1.01,13.8,1.32,15.94.02.18.04.31.05.41.02.24.02.45.02.62-.7,3.16-1.38,4.17-1.84,5.4-2.2,4.96-5.22,9.7-6.06,15.14-1.15,7.64-.23,15.46,1.36,22.97c1.35,5.65,3.82,10.93,6.33,16.15c2.23,4.78,5.9,8.86,10.19,11.88c3.71,2.44,8.13,3.45,12.5,3.88c3.28.24,6.55-.05,9.81-.42c6.47.39,12.99-.04,19.47.3.19.01.39.02.59.03.19.05.39.09.6.14c8,2.28,15.61,5.74,23.69,7.76c4.56,1.12,8.98,2.72,13.67,3.19c6.41.77,12.93,2.64,19.39,1.54c4.29-.91,7.89-3.55,10.82-6.73c3.81-4.19,5.4-5.93,8.62-7.51.5-.19,1.33-.49,1.79-.57c4.82-1.07,3.87-.87,7.83-1.04c7.28.39,8.93.89,16.73,2.12c4.16.73,8.4,1.3,12.62.75c11.79-1.18,25.01-8.83,32.1-18.26c10.12-15.91,10.95-37.39,4.82-54.96ZM319.03,159.03c.9,1.2,1.95,2.82,3.07,4.69-1.05-1.55-2.06-3.12-3.07-4.69Z" fill="#bababa"/></g><g transform="translate(-204.406288-131.560066)"><path d="M375.53,214.86c-1.03-3.21-2.45-6.35-4.32-9.16-3.09-4.4-6.33-8.78-10.22-12.51-4.58-4.21-9.77-7.68-14.78-11.35-3.56-2.86-4.79-4.52-6.23-6.79-4.14-7.6-7.2-15.99-13.47-22.2-7.27-7.98-15.74-11.78-26.3-13.38-5.25-.9-10.61-1.51-15.94-1.19-2.4.27-4.81.54-7.21.87-.38,2.57-2.2,5.1-4.66,6-4.07,1.49-8.33,2.34-12.27,4.21-.2.09-.39.2-.58.3c2.05,2.01,5.44,1.97,7.96,3.27c2.46,1.41,3.74,1.66,7.28,5.25c2.79,2.51,4.51,7.4,8.82,12.09c2.23,2.47,5.43,3.28,8.44,4.38.14.06.27.12.41.18c6.49,2.98,10.32,7.02,13.04,10.81c3.96,6.18,4.62,11.58,5.5,19.81.87,5.99.34,15.99,8.8,15.74c4.46-.58,8.72-2.21,13.16-2.87c7.5-.21,9.46.39,17.27,2.39c5.91,1.88,5.94,2.37,11.34,4.42c2.48.89,5.07,1.8,7.73,1.63c6.54-.45,7.48-6.52,6.23-11.9Z" fill="#dbdbdb"/></g><g transform="translate(-204.406288-131.560066)"><g><path d="M423.3,295.02c-.54-10.11-2.89-20.08-6.98-29.34-1.32-3-2.94-5.85-4.82-8.52c2.08-.02,4.1-1.24,4.67-3.45.74-2.97-1.45-5.35-3.22-7.46-3.7-4.39-7.59-8.68-12.07-12.3-.9-.69-1.76-1.46-2.72-2.07-.35-.19-.71-.34-1.09-.44-2.47-2.47-5.07-4.83-7.91-6.97-2.75-2.61-7.68-4.45-10.13-.5-1.54,2.36-.21,5.16.93,7.39c2.93,5.99,3.9,6.71,5.25,12.3c0,.02.01.03.01.06.02.42,0,.92-.03,1.31-.1.53-.25,1.05-.43,1.56-1.91,3.48-1.41,2.85-4.88,6-4.07,3.06-11.56,7.91-18.83,9.57-6.7,2.04-16.08,1.16-25.9.19-3.09-.36-5.41-.58-7.76-.91c1.48-1.78,1.93-4.39.69-7.37-3.58-9.31-9.17-17.92-16.64-24.58-9.87-8.79-21.77-15-34.48-18.53-2.28-.78-3.45-1.34-4.19-1.99-.57-.95-1.09-1.99-1.86-2.75-1.09-8.56-1.89-17.19-4.11-25.54-1.18-4.17-2.88-8.17-4.84-12.03-1.37-2.35-2.5-5.07-4.54-6.91-.18-.16-.37-.29-.57-.41-1.15-1.67-2.44-3.24-3.94-4.64-1.76-1.74-4.66-2.79-6.72-.95-2.54,1.74-2.23,5.96.46,7.42c9.08,7.21,13.4,37.75,14.89,55.53.64,6.57,1.22,13.26,3.58,19.48c4.76,13.04,16.54,22.1,29.41,26.39c10.78,3.98,21.89,6.96,33.31,8.38c12.28,1.95,24.85,2.1,37.1-.22c9.19-1.78,18.6-4.25,25.92-10.39c4.28-3.55,8.28-7.92,10.39-13.11.94,1.07,1.9,2.12,2.89,3.14-2.49.88-4.03,3.99-2.48,6.54c1.25,1.5,2.41,3.17,3.49,4.96-.32.94-.49,1.93-.66,2.92-1.51,1.23-2.46,3.07-3.31,4.94-1.31-.5-2.83-.47-4.11.31-1.22.71-2.04,1.86-2.77,3.04-.33.45-.65.91-.96,1.37-1.62-.89-3.68-.85-5.28.74-3.42,2.85-5.73,6.76-8.48,10.21-2.29,3.15-4.52,6.33-6.73,9.53-1.37-.53-3.02-.64-4.76-.22-2.94.92-5.69,2.26-8.33,3.82-.22-.06-.44-.1-.66-.12-1.36-.32-2.57.27-3.62,1.09-.32-2.97-2.71-5.42-6.5-4.42-3.18.64-5.77,2.86-8.3,4.76-2.34,1.82-4.6,3.74-6.82,5.7-.5-1.82-2-3.47-3.9-3.6-2.14-.36-4.2,1.03-5.8,2.32-1.77,1.4-3.39,2.97-5.02,4.52-.64-1.08-1.67-1.91-2.88-2.35-.21-.67-.57-1.3-1.1-1.82-1.43-1.61-3.58-1.73-5.57-1.24-1.82-1.17-4.08-1.73-6-.62-3.53,2.08-2.57,7.3,1.24,8.29.85.77,1.86,1.29,2.94,1.52.35.81.89,1.48,1.56,1.98-.42.98-.83,1.97-1.23,2.96-.83,1.93-1.07,4.5.34,6.2.85,1.26,2.42,1.84,3.92,1.74-.21.84-.26,1.72-.03,2.64c1.24,3.89,5.16,3.91,8,2-.89,1.07-1.77,2.16-2.62,3.27-.86,1.13-1.67,2.54-1.32,4c.18,2.43,2.77,4.32,5.14,3.91c1.74-.06,2.89-1.45,4.05-2.56.2-.19.4-.36.6-.55-.03,2.46,1.61,4.85,4.47,4.82c1.68.01,3.1-1.07,4.45-1.94c2-1.43,3.92-2.96,5.87-4.45.23-.18.46-.37.69-.55.38.11.77.19,1.17.19c2.84-.04,4.5-2.58,6.08-4.7.82,1.99,3.06,3.15,5.3,2.95-.02.55.01,1.11.11,1.67.53,2.34,2.78,3.9,5.13,3.89c1.17,0,2.25-.41,3.2-1.03.05.31.11.62.19.94.85,3.01,4.32,4.36,7.19,3.54c1.65-.57,3.07-1.62,4.31-2.85c2.01.8,4.17.71,6.29.15c1.07.43,2.32.55,3.68.2c2.69-.93,4.84-2.87,7.01-4.69.03-.02.06-.04.09-.06.77,1.75,2.8,2.99,4.69,2.6.94-.07,1.75-.5,2.46-1.07c3.91,1.67,7.85-1.46,10.9-4.28c4.04-3.7,6.94-8.45,9.02-13.48c1.83-4.09,3.47-8.3,4.18-12.75.93-4.67.9-9.47.64-14.22Z" fill="#adadad"/></g><path d="M435.18,290.46c-2.18-6.7-4.2-13.47-7.03-19.94-2.55-6.01-6.14-11.51-9.92-16.81-3.04-4.09-8.03-11.27-13.89-9.85-2.99.84-4.21,3.75-5.35,6.34-.8,1.62-1.76,3.16-2.84,4.6-2.38,3.22-9.76,10.57-15.4,13.19-10.6,5.22-24.07,6.91-39.46,5.86-9.17-.77-20.72-2.96-32.19-7.25-5.43-2.03-14.13-6.3-21.82-10.98-11.18-6.79-20.76-14.34-23.15-23.69-.97-2.57.08-10.37.62-16.47.62-11.66-1.19-23.42-4.88-34.48-1.62-4.64-3.56-9.18-5.75-13.58-1.09-1.9-1.9-4.09-3.23-5.84-.01-.05-.02-.1-.03-.14-.95-3.75-6.33-4.48-8.22-1.07-2.04,3.89-3.41,8.09-5.13,12.12-2.53,6.01-4.88,12.12-6.47,18.45-4.49,19.64-5.33,39.87-4.1,59.96-.11,2.68-.2,5.36-.28,8.04-.1,9.03-.72,18.12.31,27.12.33,4.41-.36,4.99-1.49,7.79-1.65,3.41-3.63,6.69-4.84,10.3-1.08,3.65-1.66,7.55-1.15,11.34.03.25.07.49.11.74-.01.06-.02.12-.03.19-.57,5.1.49,10.23,1.92,15.11c2.16,7.63,6.29,14.51,11.26,20.65c5.12,6.26,12.27,11.27,20.24,13c5.82,1.23,11.72-.02,17.58-.17c5.97-.07,6.12-.41,11.17,1.45c3.95,1.72,7.83,3.64,11.96,4.87c3.82,1.14,7.82,1.43,11.74,2.02c7.73,1.12,15.77,2.67,23.42.52c7.6-.79,15.11-3.01,21.73-6.75c5.26-3.26,9.88-6.89,14.02-8.74c3.49.49,7.41,1.6,13.11,2.51c12.92,1.51,28.05.99,39.52-5.66c6.17-3.64,10.66-9.46,14.33-15.5c4.68-7.55,7.48-16.16,7.84-25.05.6-8.31-1.59-16.4-4.23-24.2ZM287.15,301.1c.38.21.75.42,1.14.62.21.27.42.53.64.8-.6-.47-1.19-.93-1.78-1.42ZM421.6,311.17c-2.8,9.81-9.72,18.58-18.56,25.87-5.11,2.38-12.31,3.78-21.74,3.76-9.22-.15-14.35-.16-21.32-2.1-6.82-1.87-10.12-4.55-18.36-7.34-4.33-1.46-8.9-1.98-13.31-3.14-3.42-4.62-6.99-9.14-10.47-13.72-1.51-2.03-3.13-4-4.55-6.1.49.04.99.08,1.48.11c5.38.52,10.77,1.05,16.17.86c12.23-.71,24.4-3.13,36.01-6.99c12.27-3.97,22.84-11.67,31.9-20.7c4.13-4.06,7.88-8.48,11.25-13.18.8-1.18,1.58-2.38,2.33-3.6c1.57,2.61,3.11,5.36,3.95,7.36c4.82,11.12,9.09,26.72,5.22,38.91Z" fill="#8c8c8c"/></g><g transform="translate(-204.406288-131.560066)"><path d="M309.14,344.25c-.79-2.32-2.86-3.77-4.72-5.21-11.82-9.21-21.77-15.75-31.38-24.14-.63-.56-1.22-1.1-1.8-1.62-2.4-5.01-4.1-9.63-6.19-16.69-1.53-5.89-2.25-11.96-3.88-17.83-1.97-7.32-4.82-14.41-8.39-21.09-1.56-2.79-3.07-5.7-5.36-7.98-3.91-3.72-9.38,1.05-7.2,5.2-.14,1.12-.02,2.3,0,3.43.08,2.37.25,4.74.44,7.1.4,5.18.78,10.37.82,15.57-.23,1.76-.26,3.57-.45,5.3-.09,1.38-.18,2.76-.27,4.14-.27.4-.5.85-.64,1.38-3.75,10.62-4.81,22.5-1.06,33.28c2.43,7.78,7.07,15.09,14.41,19.02c6.07,3.29,13.08,4.15,19.89,4.27c4.34.04,8.66-.49,13-.23c5.16.35,6,.71,12.43,1.76c2.24.34,4.51.85,6.77.39c2.64-.6,4.34-3.43,3.58-6.05Z" fill="#828282"/><path d="M437.2,315.3c-.48-4.79-7.54-5.23-8.76-.6-2.66,12.4-8.56,20.88-17.92,26.48-4.01,1.96-3.47,1.76-8.5,3.48-1.18.44-2.58.47-3.53,1.37-2.99,2.02-1.92,7.03,1.53,7.87c1.36.41,2.71-.07,4.02-.45c1.74-.52,3.44-1.14,5.12-1.82c7.74-2.79,14.36-8.14,19.26-14.7c3.37-4.54,5.91-9.69,7.47-15.13.42-2.14,1.55-4.31,1.31-6.5Z" fill="#828282"/></g></svg>
